Music_CrystalOpening: ; 1786e8
	dbw $c0, Music_CrystalOpening_Ch1
	dbw $01, Music_CrystalOpening_Ch2
	dbw $02, Music_CrystalOpening_Ch3
	dbw $03, Music_CrystalOpening_Ch4
; 1786f4


Music_CrystalOpening_Ch1: ; 1786f4
	tempo 136
	volume $77
	tone $0002
	vibrato $10, $34
	dutycycle $3
	stereopanning $f0
	notetype $c, $92
	octave 2
	note F#, 1
	note F#, 3
	note F#, 1
	note F#, 1
	note F#, 3
	note F#, 1
	note F#, 1
	note F#, 3
	note F#, 1
	note F#, 1
	note F#, 5
	notetype $c, $b4
	octave 2
	note B_, 1
	note F#, 1
	note E_, 1
	note B_, 1
	octave 3
	note C#, 1
	octave 2
	note G#, 1
	note F#, 1
	octave 3
	note C#, 1
	octave 2
	note F#, 1
	note C#, 1
	octave 1
	note B_, 1
	octave 2
	note F#, 1
	octave 3
	note F#, 1
	octave 2
	note F#, 1
	note B_, 1
	octave 3
	note E_, 1
	note F#, 1
	note E_, 1
	octave 2
	note B_, 1
	note F#, 1
	note B_, 1
	octave 3
	note E_, 1
	note F#, 1
	note E_, 1
	octave 2
	note B_, 1
	note F#, 1
	note B_, 1
	octave 3
	note E_, 1
	octave 2
	note D_, 7
	octave 3
	note D_, 1
	octave 2
	note A_, 1
	note G_, 1
	octave 3
	note D_, 1
	note E_, 1
	octave 2
	note B_, 1
	note A_, 1
	octave 3
	note E_, 1
	octave 2
	note A_, 1
	note E_, 1
	note D_, 1
	note A_, 1
	octave 3
	note A_, 1
	octave 2
	note A_, 1
	octave 3
	note D_, 1
	note E_, 1
	note A_, 1
	note E_, 1
	note D_, 1
	octave 2
	note A_, 1
	octave 3
	note D_, 1
	note E_, 1
	note A_, 1
	note E_, 1
	octave 4
	note C_, 1
	octave 3
	note G_, 1
	note F#, 1
	octave 4
	note C_, 1
	notetype $c, $a0
	note D_, 7
	note D_, 7
	notetype $c, $a7
	note D_, 7
	notetype $c, $b2
	octave 2
	note D_, 15
	endchannel

Music_CrystalOpening_Ch2: ; 17877a
	notetype $c, $a2
	dutycycle $3
	vibrato $8, $44
	octave 2
	note B_, 1
	note B_, 3
	note B_, 1
	note B_, 1
	note B_, 3
	note B_, 1
	note B_, 1
	note B_, 3
	note B_, 1
	note B_, 1
	note B_, 1
	notetype $c, $a2
	octave 2
	note E_, 0
	note B_, 0
	octave 3
	note E_, 0
	note F#, 0
	notetype $c, $c7
	note E_, 7
	note F#, 7
	octave 2
	note B_, 7
	notetype $c, $b0
	octave 3
	note B_, 7
	notetype $c, $c7
	note B_, 15
	note __, 15
	note G_, 7
	note A_, 7
	note D_, 7
	notetype $c, $c7
	octave 4
	note D_, 7
	notetype $c, $7c
	note D_, 7
	notetype $c, $c7
	note D_, 7
	note G_, 7
	notetype $c, $b0
	note F#, 7
	note F#, 7
	notetype $c, $c7
	note F#, 7
	notetype $c, $c2
	octave 3
	note D_, 15
	endchannel

Music_CrystalOpening_Ch3: ; 1787c8
	notetype $c, $16
	octave 1
	note B_, 3
	notetype $6, $16
	note B_, 0
	note A#, 0
	note A_, 0
	note G#, 0
	note G_, 0
	note F#, 0
	note F_, 0
	note E_, 0
	notetype $c, $16
	note B_, 3
	note B_, 3
	note B_, 3
	notetype $6, $16
	note B_, 0
	note A#, 0
	note A_, 0
	note G#, 0
	note G_, 0
	note F#, 0
	note F_, 0
	note E_, 0
	notetype $c, $16
	note B_, 3
	note B_, 3
	octave 2
	note B_, 7
	note F#, 7
	note D#, 7
	note B_, 3
	note F#, 3
	note B_, 3
	octave 3
	note E_, 3
	note F#, 3
	note E_, 3
	note D_, 3
	note C#, 3
	octave 2
	note A_, 7
	octave 3
	note D_, 7
	octave 2
	note A_, 7
	note F#, 7
	octave 3
	note D_, 3
	note E_, 3
	note F#, 3
	note E_, 3
	note D_, 3
	note C#, 3
	note C_, 7
	note D_, 7
	note D_, 15
	octave 2
	note D_, 0
	note __, 14
	endchannel

Music_CrystalOpening_Ch4: ; 178810
	stereopanning $f
	togglenoise $3
	notetype $c
	note __, 15
	note __, 11
	octave 2
	note C#, 0
	note C#, 0
	note C#, 0
	note C#, 0
	note D_, 3
	notetype $8
	note C#, 0
	note C#, 0
	note C#, 0
	note C#, 0
	note C#, 0
	note C#, 0
	note D_, 5
	note C#, 0
	note C#, 0
	note C#, 0
	note C#, 0
	note C#, 0
	note C#, 0
	note D_, 2
	notetype $c
	note C#, 0
	note C#, 0
	note G_, 0
	note G_, 0
	note C#, 0
	note C#, 0
	note C#, 1
	note C#, 0
	note C#, 0
	note G_, 1
	note D_, 0
	note C#, 0
	note A_, 0
	note G_, 0
	note D_, 0
	note D_, 0
	note G_, 0
	note __, 0
	note C#, 0
	note C#, 0
	note A_, 0
	note G_, 0
	note C#, 0
	note D_, 0
	note G_, 0
	note G_, 0
	note D_, 0
	note D_, 0
	note A_, 1
	note C#, 1
	note C#, 1
	note C#, 1
	note A_, 1
	note D_, 1
	note C#, 0
	note C#, 0
	note C#, 0
	note C#, 0
	note D_, 3
	note C#, 0
	note C#, 0
	note C#, 0
	note C#, 0
	note D_, 3
	note C#, 0
	note C#, 0
	note C#, 0
	note C#, 0
	note A_, 0
	note G_, 0
	note D_, 0
	note C#, 0
	note G_, 0
	note G_, 0
	note C#, 0
	note C#, 0
	note A_, 0
	note G_, 0
	note D_, 0
	note C#, 0
	note G_, 0
	note G_, 0
	note D_, 0
	note C#, 0
	note A_, 0
	note G_, 0
	note C#, 0
	note C#, 0
	note D_, 0
	note C#, 0
	note C#, 0
	note D_, 0
	note A_, 0
	note G_, 0
	note D_, 0
	note C#, 0
	note C#, 0
	note G_, 0
	note D_, 0
	note C#, 0
	note C#, 1
	note D_, 1
	note __, 1
	note D_, 1
	note D_, 1
	note __, 5
	note __, 15
	note __, 15
	endchannel
; 178889
