Music_LakeOfRage: ; ee6c5
	dbw $c0, Music_LakeOfRage_Ch1
	dbw $01, Music_LakeOfRage_Ch2
	dbw $02, Music_LakeOfRage_Ch3
	dbw $03, Music_LakeOfRage_Ch4
; ee6d1


Music_LakeOfRage_Ch1: ; ee6d1
	tempo 144
	volume $77
	dutycycle $3
	tone $0002
	vibrato $8, $22
	stereopanning $f0
	notetype $c, $b4
	octave 3
	note D_, 5
	note D_, 9
	note D_, 5
	note D_, 5
	note E_, 3

Music_LakeOfRage_branch_ee6e9: ; ee6e9
	intensity $b5
	note F#, 5
	note E_, 5
	note D_, 3
	octave 4
	note D_, 5
	note C_, 3
	note E_, 1
	note D_, 3
	octave 3
	note B_, 5
	note G_, 1
	notetype $8, $b5
	note D_, 3
	note G_, 3
	note B_, 3
	notetype $c, $b4
	note D_, 2
	note F#, 0
	intensity $b7
	note A_, 7
	note F#, 3
	note A_, 2
	octave 4
	note C#, 0
	note D_, 11
	notetype $8, $b4
	octave 3
	note C_, 3
	octave 2
	note B_, 3
	note A_, 3
	notetype $8, $b7
	note A_, 11
	notetype $c, $b7
	octave 3
	note C_, 11
	intensity $b4
	note E_, 3
	note D_, 1
	intensity $b7
	octave 2
	note A_, 9
	intensity $b4
	octave 3
	note E_, 3
	note D_, 2
	note E_, 0
	intensity $b7
	note F#, 7
	note D_, 5
	note C_, 0
	note E_, 0
	note C_, 7
	note E_, 5
	note E_, 0
	note G_, 0
	note E_, 7
	note G_, 5
	note F#, 0
	note G_, 0
	intensity $a0
	note A_, 6
	intensity $a7
	note A_, 6
	note A_, 0
	octave 4
	note C_, 0
	intensity $a0
	note D_, 5
	intensity $a7
	note D_, 5
	loopchannel 0, Music_LakeOfRage_branch_ee6e9

Music_LakeOfRage_Ch2: ; ee749
	dutycycle $3
	vibrato $20, $44
	stereopanning $ff
	notetype $c, $90
	octave 3
	note G_, 7
	intensity $97
	note G_, 7
	intensity $a0
	note A_, 7
	intensity $a7
	note A_, 7

Music_LakeOfRage_branch_ee75e: ; ee75e
	notetype $8, $c7
	octave 4
	note D_, 15
	octave 3
	note A_, 3
	octave 4
	note D_, 3
	note A_, 15
	octave 5
	note C_, 3
	octave 4
	note B_, 3
	notetype $c, $c7
	note G_, 11
	note B_, 3
	note A_, 2
	note G_, 0
	intensity $b0
	note F#, 11
	intensity $b7
	note F#, 15
	notetype $8, $c3
	octave 3
	note G_, 3
	note F#, 3
	note E_, 3
	note C_, 14
	notetype $c, $c3
	octave 4
	note C_, 0
	note E_, 0
	note G_, 0
	note __, 0
	note E_, 0
	note G_, 0
	intensity $c5
	octave 5
	note C_, 9
	intensity $c3
	octave 4
	note A_, 3
	note G_, 3
	note F#, 3
	note E_, 1
	notetype $8, $c3
	note D_, 3
	note E_, 3
	note F#, 3
	notetype $8, $c7
	note A_, 11
	notetype $8, $c3
	octave 3
	note G_, 3
	note F#, 3
	note E_, 3
	octave 4
	note C_, 3
	octave 3
	note B_, 3
	note A_, 3
	octave 4
	note E_, 3
	note D_, 3
	note C_, 3
	note G_, 3
	note F#, 3
	note E_, 3
	notetype $8, $c7
	note F#, 15
	note D_, 3
	note F#, 3
	notetype $c, $c7
	note A_, 15
	loopchannel 0, Music_LakeOfRage_branch_ee75e

Music_LakeOfRage_Ch3: ; ee7c1
	stereopanning $f
	notetype $c, $16
	octave 3
	note G_, 3
	note __, 1
	note G_, 3
	note __, 5
	note F#, 3
	note __, 1
	note F#, 3
	note __, 1
	note E_, 3

Music_LakeOfRage_branch_ee7d0: ; ee7d0
	octave 3
	note D_, 3
	octave 2
	note A_, 1
	octave 3
	note D_, 3
	octave 2
	note A_, 1
	octave 3
	note D_, 1
	note E_, 1
	note F_, 3
	note C_, 1
	note F_, 3
	note C_, 1
	note F_, 1
	note F#, 1
	note G_, 3
	note D_, 1
	note G_, 3
	note D_, 1
	note G_, 1
	note B_, 1
	note A_, 1
	note D_, 1
	note F#, 1
	note A_, 3
	note D_, 1
	note E_, 1
	note F#, 1
	note A_, 1
	note F#, 1
	note A_, 1
	octave 4
	note D_, 3
	octave 3
	note A_, 1
	octave 4
	note D_, 1
	note F#, 1
	octave 3
	note E_, 3
	note C_, 1
	note E_, 3
	note C_, 1
	note E_, 1
	note C_, 1
	note G_, 3
	note C_, 1
	note G_, 3
	note C_, 1
	note G_, 1
	note C_, 1
	note F#, 3
	note D_, 1
	note F#, 3
	note D_, 1
	note F#, 1
	note D_, 1
	note A_, 1
	note D_, 1
	note F#, 1
	octave 4
	note D_, 3
	octave 3
	note D_, 1
	note E_, 1
	note F#, 1
	note G_, 3
	note C_, 1
	note G_, 3
	note C_, 1
	note G_, 1
	note C_, 1
	note G_, 3
	note C_, 1
	note G_, 3
	note C_, 1
	note G_, 1
	note C_, 1
	note F#, 3
	note D_, 1
	note F#, 3
	note D_, 1
	note F#, 1
	note D_, 1
	note D_, 3
	octave 2
	note A_, 1
	octave 3
	note D_, 3
	octave 2
	note A_, 1
	octave 3
	note D_, 1
	octave 2
	note A_, 1
	loopchannel 0, Music_LakeOfRage_branch_ee7d0

Music_LakeOfRage_Ch4: ; ee835
	stereopanning $f0
	togglenoise $3
	notetype $c

Music_LakeOfRage_branch_ee83b: ; ee83b
	note D_, 1
	note D_, 0
	note D_, 0
	note G_, 1
	note D_, 1
	note D_, 0
	note D_, 0
	note F#, 5
	note D_, 1
	note D_, 0
	note D_, 0
	note G_, 1
	note D_, 1
	note D_, 0
	note D_, 0
	note F#, 2
	note D_, 0
	note D_, 0
	note D_, 0
	loopchannel 0, Music_LakeOfRage_branch_ee83b
; ee852
