Music_MaxieArchieBattle:
    dbw $c0, Music_MaxieArchieBattle_Ch1
    dbw $01, Music_MaxieArchieBattle_Ch2
    dbw $02, Music_MaxieArchieBattle_Ch3
    dbw $03, Music_MaxieArchieBattle_Ch4
 
Music_MaxieArchieBattle_Ch1:
    tempo 205
    dutycycle 3
    tone $0001
    notetype $C, $A4
    vibrato $5, $26
    octave 3
    note __, 16
    note __, 11
    notetype $6, $B0
    note __, 1
    note D_, 1
    notetype $C, $B0
    note D#, 6
    intensity $B5
    note D#, 2
    notetype $6, $B0
    note __, 1
    note D_, 1
    notetype $C, $B0
    note D#, 1
    note C#, 1
    note D#, 1
    note F#, 1
    note E_, 1
    note D#, 1
    note C#, 1
    note D#, 6
    intensity $B5
    note D#, 3
    intensity $B0
    note D#, 1
    note C#, 1
    note D#, 1
    note F#, 1
    note E_, 1
    note G#, 1
    note E_, 1
    note D#, 6
    intensity $B5
    note D#, 3
    intensity $B0
    note D#, 1
    note C#, 1
    note D#, 1
    note F#, 1
    note E_, 1
    note D#, 1
    note C#, 1
    intensity $B0
    note D#, 8
    intensity $B7
    note D#, 7
;;;;mark
    notetype $6, $D0
    note __, 1
    note E_, 1
    notetype $C, $D0
    note F_, 6
    intensity $D5
    note F_, 2
    notetype $6, $D0
    note __, 1
    note E_, 1
    notetype $C, $D0
    note F_, 1
    note D#, 1
    note F_, 1
    note G#, 1
    note F#, 1
    note F_, 1
    note D#, 1
    note F_, 6
    intensity $D5
    note F_, 3
    intensity $D0
    note F_, 1
    note D#, 1
    note F_, 1
    note G#, 1
    note F#, 1
    note A#, 1
    note F#, 1
    note F_, 6
    intensity $D5
    note F_, 3
    intensity $D0
    note F_, 1
    note D#, 1
    note F_, 1
    note G#, 1
    note F#, 1
    note F_, 1
    note D#, 1
    intensity $D0
    note F_, 8
    intensity $D7
    note F_, 4
    intensity $E0
    note F#, 4
Music_MaxieArchieBattle_Ch1_loop:
    ;;;;mark
    intensity $F0
    note G_, 6
    notetype $6, $F7
    note G_, 5
    note E_, 1
    notetype $C, $F0
    note G_, 1
    note F_, 1
    note G_, 1
    note A#, 1
    note G#, 1
    note G_, 1
    note F_, 1
    note G_, 6
    intensity $F5
    note G_, 3
    intensity $F0
    note G_, 1
    note F_, 1
    note G_, 1
    note A#, 1
    note G#, 1
    octave 4
    note C_, 1
    octave 3
    note G#, 1
    note G_, 6
    intensity $F5
    note G_, 3
    intensity $F0
    note G_, 1
    note F_, 1
    note G_, 1
    note A#, 1
    note G#, 1
    note G_, 1
    note F_, 1
    intensity $F0
    note G_, 6
    octave 4
    note D_, 6
    note C_, 4
;;;;mark
    octave 3
    intensity $C7
    note B_, 3
    note A#, 3
    note F#, 2
    note A_, 3
    note G_, 3
    note E_, 2
    note F#, 3
    note G_, 3
    note F#, 2
    intensity $C0
    note D#, 8
    intensity $C7
    note D#, 8
    intensity $A0
    octave 2
    note D#, 8
    intensity $A7
    note D#, 8
;;;;mark
    note __, 16
    note __, 1
    intensity $A2
    dutycycle 0
    octave 3
    note C_, 1
    octave 2
    note A#, 1
    octave 3
    note C_, 1
    note D#, 1
    note C#, 1
    note C_, 1
    octave 2
    note A#, 1
    octave 3
    intensity $C7
    note C_, 8
    dutycycle 1
    octave 2
    note F_, 3
    note F#, 3
    note B_, 2
    note A#, 3
    note F#, 3
    note E_, 2
    note F_, 3
    note F#, 3
    note B_, 2
    note A#, 3
    note B_, 3
    octave 3
    note C#, 2
;;;;;mark
    note C_, 1
    note C_, 1
    note C#, 2
    note C_, 1
    note C_, 1
    note D#, 2
    note C_, 1
    note C_, 1
    note E_, 2
    note F_, 1
    note E_, 1
    note C#, 1
    note C_, 1
    note C_, 1
    note C_, 1
    note C#, 2
    note C_, 1
    note C_, 1
    note D#, 2
    note C_, 1
    note C_, 1
    note E_, 2
    note F_, 2
    note E_, 2
;;;;mark
    octave 4
    dutycycle 0
    note C_, 1
    note C_, 1
    note C#, 2
    note C_, 1
    note C_, 1
    note D#, 2
    note C_, 1
    note C_, 1
    note E_, 2
    note F_, 1
    note E_, 1
    note C#, 1
    note C_, 1
    note C_, 1
    note C_, 1
    note C#, 2
    note C_, 1
    note C_, 1
    note D#, 2
    note C_, 1
    note C_, 1
    note E_, 2
    note F_, 2
    note E_, 2
    intensity $C0
    note F_, 16
    note F_, 8
    intensity $C7
    note F_, 8
    octave 5
    intensity $C0
    note F_, 16
    note F_, 8
    intensity $C7
    note F_, 7
    octave 3
    notetype $6, $D0
    note __, 1
    note E_, 1
    notetype $C, $D0
    note F_, 6
    intensity $D5
    note F_, 2
    notetype $6, $D0
    note __, 1
    note E_, 1
    notetype $C, $D0
    note F_, 1
    note D#, 1
    note F_, 1
    note G#, 1
    note F#, 1
    note F_, 1
    note D#, 1
    note F_, 6
    intensity $D5
    note F_, 3
    intensity $D0
    note F_, 1
    note D#, 1
    note F_, 1
    note G#, 1
    note F#, 1
    note A#, 1
    note F#, 1
    note F_, 6
    intensity $D5
    note F_, 3
    intensity $D0
    note F_, 1
    note D#, 1
    note F_, 1
    note G#, 1
    note F#, 1
    note F_, 1
    note D#, 1
    intensity $D0
    note F_, 6
    intensity $F7
    octave 4
    note C_, 4
    intensity $E0
    octave 3
    note F_, 2
    note F#, 4
    loopchannel 0, Music_MaxieArchieBattle_Ch1_loop
 
Music_MaxieArchieBattle_Ch2:
    tone $0001
    dutycycle 1
    notetype $C, $A7
    vibrato $12, $15
    octave 2
    note __, 16
    note __, 16
    note __, 16
    note __, 16
    note __, 16
    note __, 8
    note E_, 4
Music_MaxieArchieBattle_Ch2_loop_main:
    dutycycle 1
    intensity $B7
    octave 2
    note F_, 1
    note __, 2
    note C_, 3
    note D#, 1
    note __, 1
    note F_, 1
    note __, 2
    note C_, 3
    note E_, 1
    note __, 1
    note F_, 1
    note __, 2
    note A#, 2
    note G#, 1
    note F#, 1
    note E_, 1
    note F_, 1
    note __, 2
    note C_, 3
    note F#, 1
    note __, 1
    note F_, 1
    note __, 2
    note C_, 3
    note E_, 1
    note __, 1
    note F_, 1
    note __, 2
    note C_, 3
    note E_, 1
    note __, 1
    note F_, 1
    note __, 2
    note A#, 2
    note G#, 1
    note F#, 1
    note E_, 1
    note F_, 1
    note __, 2
    note C_, 1
    note F#, 4
;;;;mark
    note G_, 1
    note __, 2
    note D_, 3
    note F#, 1
    note __, 1
    note G_, 1
    note __, 2
    note D_, 3
    note F#, 1
    note __, 1
    note G_, 1
    note __, 2
    octave 3
    note C_, 2
    octave 2
    note A#, 1
    note G#, 1
    note F#, 1
    note G_, 1
    note __, 2
    note D_, 3
    note G#, 1
    note __, 1
    note G_, 1
    note __, 2
    note D_, 3
    note F#, 1
    note __, 1
    note G_, 1
    note __, 2
    note D_, 3
    note F#, 1
    note __, 1
    note G_, 1
    note __, 2
    octave 3
    note C_, 2
    octave 2
    note A#, 1
    note G#, 1
    note F#, 1
    note G_, 1
    note __, 2
    note D_, 1
    octave 3
    note D#, 4
;;;;mark
    dutycycle 1
    intensity $C7
    note E_, 3
    note D#, 3
    octave 2
    note B_, 2
    octave 3
    note D_, 3
    note C_, 3
    octave 2
    note A_, 2
    note B_, 3
    octave 3
    note C_, 3
    octave 2
    note B_, 2
    intensity $C0
    note G#, 8
    intensity $C7
    note G#, 8
    intensity $A0
    octave 1
    note G#, 8
    intensity $A7
    note G#, 8
;;;;;mark
    octave 2
    note C_, 3
    note C#, 3
    note F#, 2
    note F_, 3
    note C#, 3
    octave 1
    note B_, 2
    octave 2
    note C_, 3
    note C#, 3
    note F#, 2
    note F_, 3
    note F#, 3
    note D#, 2
    dutycycle 2
    note C_, 3
    note C#, 3
    note F#, 2
    note F_, 3
    note C#, 3
    octave 1
    note B_, 2
    octave 2
    note C_, 3
    note C#, 3
    note F#, 2
    note F_, 3
    note F#, 3
    note G#, 2
;;;;;mark
    note G_, 1
    note G_, 1
    note G#, 2
    note G_, 1
    note G_, 1
    note A#, 2
    note G_, 1
    note G_, 1
    octave 3
    note C_, 2
    note C#, 1
    note C_, 1
    octave 2
    note A#, 1
    note G#, 1
    note G_, 1
    note G_, 1
    note G#, 2
    note G_, 1
    note G_, 1
    note A#, 2
    note G_, 1
    note G_, 1
    octave 3
    note C_, 2
    note C#, 2
    note C_, 2
;;;;mark
    octave 3
    dutycycle 0
    note G_, 1
    note G_, 1
    note G#, 2
    note G_, 1
    note G_, 1
    note A#, 2
    note G_, 1
    note G_, 1
    octave 4
    note C_, 2
    note C#, 1
    note C_, 1
    octave 3
    note A#, 1
    note G#, 1
    note G_, 1
    note G_, 1
    note G#, 2
    note G_, 1
    note G_, 1
    note A#, 2
    note G_, 1
    note G_, 1
    octave 4
    note C_, 2
    note C#, 2
    notetype $6, $A7
    note C_, 3
    note __, 1
    notetype $C, $A0
;;;;;mark
    dutycycle 1
    note C_, 4
    intensity $A7
    note C_, 4
    intensity $A0
    octave 3
    note F#, 4
    intensity $A7
    note F#, 4
    intensity $A0
    note F_, 4
    intensity $A7
    note F_, 4
    intensity $A0
    note C_, 4
    intensity $A7
    note C_, 4
    intensity $A0
    note C_, 4
    intensity $A7
    note C_, 4
    intensity $A0
    octave 2
    note F#, 4
    intensity $A7
    note F#, 4
    intensity $A0
    note F_, 4
    intensity $A7
    note F_, 4
    intensity $A0
    note F#, 4
    intensity $A7
    note F#, 4
    loopchannel 0, Music_MaxieArchieBattle_Ch2_loop_main
    
Music_MaxieArchieBattle_Ch2_branch_1:
    octave 2
    intensity $A2
    note B_, 1
    octave 3
    note D#, 1
    note E_, 1
    note F#, 1
    note G_, 1
    note A_, 1
    note A#, 1
    note B_, 1
    octave 4
    note C_, 1
    octave 3
    note B_, 1
    note A#, 1
    note A_, 1
    note G_, 1
    note F#, 1
    note E_, 1
    note D#, 1
    note C#, 1
    note F_, 1
    note F#, 1
    note G#, 1
    note A_, 1
    note B_, 1
    octave 4
    note C_, 1
    note C#, 1
    note D_, 1
    note C#, 1
    note C_, 1
    octave 3
    note B_, 1
    note A_, 1
    note G#, 1
    note F#, 1
    note F_, 1
    note D#, 1
    note G_, 1
    note G#, 1
    note A#, 1
    note B_, 1
    octave 4
    note C#, 1
    note D_, 1
    note D#, 1
    note E_, 1
    note D#, 1
    note D_, 1
    note C#, 1
    octave 3
    note B_, 1
    note A#, 1
    note G#, 1
    note G_, 1
    note F_, 1
    note A_, 1
    note A#, 1
    octave 4
    note C_, 1
    note C#, 1
    note D#, 1
    note E_, 1
    note F_, 1
    note F#, 1
    note F_, 1
    note E_, 1
    note D#, 1
    note C#, 1
    note C_, 1
    octave 3
    note A#, 1
    note A_, 1
    endchannel
    
Music_MaxieArchieBattle_Ch2_branch_2:
    dutycycle 1
    octave 3
    note G_, 2
    note C_, 2
    note G_, 2
    octave 4
    note C_, 2
    note E_, 2
    note C_, 2
    octave 3
    note G_, 2
    octave 4
    note C_, 2
    endchannel
    
Music_MaxieArchieBattle_Ch2_branch_3:
    dutycycle 0
    octave 3
    note G#, 2
    note C#, 2
    note G#, 2
    octave 4
    note C#, 2
    note G#, 2
    note C#, 2
    octave 3
    note G#, 2
    octave 4
    note C#, 2
    endchannel
 
Music_MaxieArchieBattle_Ch3:
    stereopanning $ff
    notetype $C, $25
    octave 2
    note D#, 2
    note F#, 2
    note E_, 2
    note D#, 2
    note C#, 2
    note E_, 2
    note D#, 2
    note C#, 2
    note D#, 2
    note F#, 2
    note E_, 2
    note D#, 2
    note C#, 2
    octave 1
    note B_, 2
Music_MaxieArchieBattle_Ch3_loop_1:
    callchannel Music_MaxieArchieBattle_Ch3_branch_1
    loopchannel 3, Music_MaxieArchieBattle_Ch3_loop_1
    callchannel Music_MaxieArchieBattle_Ch3_branch_2
    callchannel Music_MaxieArchieBattle_Ch3_branch_1
    note D#, 1
    note F#, 1
    note A#, 1
    note B_, 1
    callchannel Music_MaxieArchieBattle_Ch3_branch_1
    note D#, 1
    note B_, 1
    note A#, 1
    note G#, 1
    callchannel Music_MaxieArchieBattle_Ch3_branch_1
    note D#, 1
    note A#, 1
    note D#, 1
    note B_, 1
    callchannel Music_MaxieArchieBattle_Ch3_branch_1
    callchannel Music_MaxieArchieBattle_Ch3_branch_2
    callchannel Music_MaxieArchieBattle_Ch3_branch_1
    note D#, 1
    note F#, 1
    note A#, 1
    note B_, 1
    callchannel Music_MaxieArchieBattle_Ch3_branch_1
    note D#, 1
    note A#, 1
    note A_, 1
    note A#, 1
Music_MaxieArchieBattle_Ch3_loop_main:
    callchannel Music_MaxieArchieBattle_Ch3_branch_3
    callchannel Music_MaxieArchieBattle_Ch3_branch_3
    callchannel Music_MaxieArchieBattle_Ch3_branch_3
    callchannel Music_MaxieArchieBattle_Ch3_branch_4
    callchannel Music_MaxieArchieBattle_Ch3_branch_3
    callchannel Music_MaxieArchieBattle_Ch3_branch_5
    callchannel Music_MaxieArchieBattle_Ch3_branch_3
    octave 2
    note F_, 1
    octave 3
    note C#, 1
    note C_, 1
    octave 2
    note A#, 1
    callchannel Music_MaxieArchieBattle_Ch3_branch_3
    octave 2
    note F_, 1
    octave 3
    note C_, 1
    octave 2
    note F_, 1
    octave 3
    note C#, 1
    callchannel Music_MaxieArchieBattle_Ch3_branch_3
    callchannel Music_MaxieArchieBattle_Ch3_branch_4
    callchannel Music_MaxieArchieBattle_Ch3_branch_3
    callchannel Music_MaxieArchieBattle_Ch3_branch_5
    callchannel Music_MaxieArchieBattle_Ch3_branch_3
    octave 2
    note F_, 1
    note F#, 1
    note G_, 1
    note A_, 1
;;;;mark
    callchannel Music_MaxieArchieBattle_Ch3_branch_7
    callchannel Music_MaxieArchieBattle_Ch3_branch_7
    callchannel Music_MaxieArchieBattle_Ch3_branch_7
    octave 2
    note A#, 1
    octave 3
    note C_, 1
    note D_, 1
    note D#, 1
    callchannel Music_MaxieArchieBattle_Ch3_branch_7
    callchannel Music_MaxieArchieBattle_Ch3_branch_6
    callchannel Music_MaxieArchieBattle_Ch3_branch_7
    octave 2
    note G_, 1
    octave 3
    note D#, 1
    note D_, 1
    note C_, 1
    callchannel Music_MaxieArchieBattle_Ch3_branch_7
    octave 2
    note G_, 1
    octave 3
    note D_, 1
    octave 2
    note G_, 1
    octave 3
    note D#, 1
    callchannel Music_MaxieArchieBattle_Ch3_branch_7
    octave 2
    note A#, 1
    octave 3
    note C_, 1
    note D_, 1
    note D#, 1
    callchannel Music_MaxieArchieBattle_Ch3_branch_7
    callchannel Music_MaxieArchieBattle_Ch3_branch_6
    callchannel Music_MaxieArchieBattle_Ch3_branch_7
    octave 2
    note G_, 1
    note G#, 1
    note A_, 1
    note B_, 1
    callchannel Music_MaxieArchieBattle_Ch3_branch_7
    callchannel Music_MaxieArchieBattle_Ch3_branch_7
    callchannel Music_MaxieArchieBattle_Ch3_branch_7
    callchannel Music_MaxieArchieBattle_Ch3_branch_7
    callchannel Music_MaxieArchieBattle_Ch3_branch_7
    octave 2
    note G_, 1
    octave 3
    note D_, 1
    note D#, 1
    note D#, 1
Music_MaxieArchieBattle_Ch3_loop_2:
    callchannel Music_MaxieArchieBattle_Ch3_branch_8
    loopchannel 8, Music_MaxieArchieBattle_Ch3_loop_2
Music_MaxieArchieBattle_Ch3_loop_3:
    callchannel Music_MaxieArchieBattle_Ch3_branch_3
    callchannel Music_MaxieArchieBattle_Ch3_branch_3
    callchannel Music_MaxieArchieBattle_Ch3_branch_3
    octave 2
    note F_, 1
    octave 3
    note C_, 1
    octave 2
    note B_, 1
    octave 3
    note C_, 1
    loopchannel 3, Music_MaxieArchieBattle_Ch3_loop_3
    callchannel Music_MaxieArchieBattle_Ch3_branch_3
    callchannel Music_MaxieArchieBattle_Ch3_branch_3
    octave 2
    note F_, 1
    octave 3
    note C_, 1
    note F_, 1
    note F#, 1
    note F_, 1
    note D#, 1
    note C#, 1
    note D#, 1
Music_MaxieArchieBattle_Ch3_loop_4:
    callchannel Music_MaxieArchieBattle_Ch3_branch_9
    octave 2
    note G_, 1
    octave 3
    note C_, 1
    octave 2
    note G_, 1
    octave 3
    note D#, 1
    callchannel Music_MaxieArchieBattle_Ch3_branch_9
    octave 2
    note G_, 1
    octave 3
    note C_, 1
    note C#, 1
    note C_, 1
    callchannel Music_MaxieArchieBattle_Ch3_branch_9
    octave 2
    note G_, 1
    octave 3
    note C_, 1
    octave 2
    note G_, 1
    octave 3
    note D#, 1
    callchannel Music_MaxieArchieBattle_Ch3_branch_9
    octave 2
    note G_, 1
    octave 3
    note C_, 1
    note C#, 1
    note C_, 1
    callchannel Music_MaxieArchieBattle_Ch3_branch_9
    octave 2
    note G_, 1
    octave 3
    note C_, 1
    octave 2
    note A#, 1
    note A#, 1
    octave 3
    note C_, 1
    note C_, 1
    octave 2
    note G_, 1
    octave 3
    note C_, 1
    note C#, 1
    note C_, 1
    note C#, 1
    note C_, 1
    callchannel Music_MaxieArchieBattle_Ch3_branch_9
    octave 2
    note G_, 1
    octave 3
    note C_, 1
    octave 2
    note A#, 1
    octave 3
    note D#, 1
    note C_, 1
    note C_, 1
    octave 2
    note G_, 1
    octave 3
    note C_, 1
    octave 2
    note G_, 1
    octave 3
    note C#, 1
    note D#, 1
    note E_, 1
Music_MaxieArchieBattle_Ch3_loop_5:
    callchannel Music_MaxieArchieBattle_Ch3_branch_3
    loopchannel 16, Music_MaxieArchieBattle_Ch3_loop_5
    loopchannel 0, Music_MaxieArchieBattle_Ch3_loop_main
    
Music_MaxieArchieBattle_Ch3_branch_1:
    octave 2
    note D#, 1
    note A#, 1
    note D#, 1
    note A#, 1
    endchannel
    
Music_MaxieArchieBattle_Ch3_branch_2:
    octave 2
    note F#, 1
    note G#, 1
    note A#, 1
    note B_, 1
    endchannel
    
Music_MaxieArchieBattle_Ch3_branch_3:
    octave 2
    note F_, 1
    octave 3
    note C_, 1
    octave 2
    note F_, 1
    octave 3
    note C_, 1
    endchannel
    
Music_MaxieArchieBattle_Ch3_branch_4:
    octave 2
    note G#, 1
    note A#, 1
    octave 3
    note C_, 1
    note C#, 1
    endchannel
    
Music_MaxieArchieBattle_Ch3_branch_5:
    octave 2
    note F_, 1
    note G#, 1
    octave 3
    note C_, 1
    note C#, 1
    endchannel
    
Music_MaxieArchieBattle_Ch3_branch_6:
    octave 2
    note G_, 1
    note A#, 1
    octave 3
    note D_, 1
    note D#, 1
    endchannel
    
Music_MaxieArchieBattle_Ch3_branch_7:
    octave 2
    note G_, 1
    octave 3
    note D_, 1
    octave 2
    note G_, 1
    octave 3
    note D_, 1
    endchannel
    
Music_MaxieArchieBattle_Ch3_branch_8:
    octave 2
    note G#, 1
    octave 3
    note D#, 1
    octave 2
    note G#, 1
    octave 3
    note D#, 1
    endchannel
    
Music_MaxieArchieBattle_Ch3_branch_9:
    octave 2
    note G_, 1
    octave 3
    note C_, 1
    octave 2
    note G_, 1
    octave 3
    note C_, 1
    endchannel
 
Music_MaxieArchieBattle_Ch4:
    togglenoise $3
    notetype $c
    note D#, 8
    note D#, 4
    note D#, 10
    note C_, 2
    note C_, 2
    note C_, 2
    callchannel Music_MaxieArchieBattle_Ch4_branch_2
    callchannel Music_MaxieArchieBattle_Ch4_branch_3
    callchannel Music_MaxieArchieBattle_Ch4_branch_2
    callchannel Music_MaxieArchieBattle_Ch4_branch_3
    callchannel Music_MaxieArchieBattle_Ch4_branch_2
    callchannel Music_MaxieArchieBattle_Ch4_branch_2
    callchannel Music_MaxieArchieBattle_Ch4_branch_2
    callchannel Music_MaxieArchieBattle_Ch4_branch_4
;;;;;mark
Music_MaxieArchieBattle_Ch4_loop_main:
    callchannel Music_MaxieArchieBattle_Ch4_branch_5
    callchannel Music_MaxieArchieBattle_Ch4_branch_5
    callchannel Music_MaxieArchieBattle_Ch4_branch_5
    callchannel Music_MaxieArchieBattle_Ch4_branch_3
    callchannel Music_MaxieArchieBattle_Ch4_branch_5
    callchannel Music_MaxieArchieBattle_Ch4_branch_5
    callchannel Music_MaxieArchieBattle_Ch4_branch_5
    callchannel Music_MaxieArchieBattle_Ch4_branch_5
;;;;;mark
    callchannel Music_MaxieArchieBattle_Ch4_branch_5
    callchannel Music_MaxieArchieBattle_Ch4_branch_5
    callchannel Music_MaxieArchieBattle_Ch4_branch_3
    callchannel Music_MaxieArchieBattle_Ch4_branch_5
    callchannel Music_MaxieArchieBattle_Ch4_branch_5
    callchannel Music_MaxieArchieBattle_Ch4_branch_3
    callchannel Music_MaxieArchieBattle_Ch4_branch_5
    callchannel Music_MaxieArchieBattle_Ch4_branch_5
;;;;;mark
    callchannel Music_MaxieArchieBattle_Ch4_branch_5
    callchannel Music_MaxieArchieBattle_Ch4_branch_5
    callchannel Music_MaxieArchieBattle_Ch4_branch_5
    note __, 2
    note G#, 2
    note __, 2
    note G#, 2
    note __, 2
    note G#, 2
    note __, 2
    note G#, 2
    note __, 2
    note G#, 2
    note __, 2
    note G#, 2
    note __, 2
    note G#, 2
    note G#, 2
    note D_, 1
    note D_, 1
;;;;;mark
    callchannel Music_MaxieArchieBattle_Ch4_branch_5
    callchannel Music_MaxieArchieBattle_Ch4_branch_5
    callchannel Music_MaxieArchieBattle_Ch4_branch_5
    callchannel Music_MaxieArchieBattle_Ch4_branch_5
    callchannel Music_MaxieArchieBattle_Ch4_branch_5
    callchannel Music_MaxieArchieBattle_Ch4_branch_5
    callchannel Music_MaxieArchieBattle_Ch4_branch_5
    note C_, 1
    note D#, 2
    note C_, 2
    note C_, 2
    note D#, 1
    callchannel Music_MaxieArchieBattle_Ch4_branch_1
    callchannel Music_MaxieArchieBattle_Ch4_branch_1
    callchannel Music_MaxieArchieBattle_Ch4_branch_1
    callchannel Music_MaxieArchieBattle_Ch4_branch_1
    callchannel Music_MaxieArchieBattle_Ch4_branch_1
    callchannel Music_MaxieArchieBattle_Ch4_branch_1
    callchannel Music_MaxieArchieBattle_Ch4_branch_1
    note D#, 1
    note D#, 1
    note C_, 1
    note D#, 1
    note D#, 1
    note C_, 1
    note D#, 1
    note C_, 1
    callchannel Music_MaxieArchieBattle_Ch4_branch_5
    callchannel Music_MaxieArchieBattle_Ch4_branch_5
    callchannel Music_MaxieArchieBattle_Ch4_branch_5
    callchannel Music_MaxieArchieBattle_Ch4_branch_5
    callchannel Music_MaxieArchieBattle_Ch4_branch_5
    callchannel Music_MaxieArchieBattle_Ch4_branch_5
    callchannel Music_MaxieArchieBattle_Ch4_branch_5
    note C_, 2
    note D#, 1
    note C_, 2
    note D#, 2
    note D#, 1
    loopchannel 0, Music_MaxieArchieBattle_Ch4_loop_main
    
Music_MaxieArchieBattle_Ch4_branch_1:
    note D#, 1
    note D#, 1
    note C_, 1
    note D#, 1
    note D#, 1
    note D#, 1
    note C_, 1
    note D#, 1
    endchannel
    
Music_MaxieArchieBattle_Ch4_branch_2:
    note C_, 3
    note C_, 3
    note D#, 2
    endchannel
    
Music_MaxieArchieBattle_Ch4_branch_3:
    note C_, 3
    note C_, 3
    note D#, 1
    notetype $6
    note D_, 1
    note D_, 1
    notetype $C
    endchannel
 
Music_MaxieArchieBattle_Ch4_branch_4:
    note C_, 3
    note C_, 3
    note __, 1
    notetype $6
    note D_, 1
    note D_, 1
    notetype $C
    endchannel
    
Music_MaxieArchieBattle_Ch4_branch_5:
    note C_, 2
    note D#, 1
    note C_, 3
    note D#, 2
    endchannel