Music_Printer: ; f07fd
	dbw $02, Music_Printer_Ch3
; f0800


Music_Printer_Ch3: ; f0800
	tempo 256
	notetype $c, $20
	octave 4
	note B_, 5
	octave 5
	note C#, 0
	note __, 0
	octave 4
	note B_, 5
	octave 5
	note C#, 0
	note __, 0
	octave 4
	note B_, 0
	note __, 0
	octave 5
	note E_, 0
	note __, 0
	note D#, 0
	note __, 0
	note C#, 0
	note __, 0
	octave 4
	note B_, 0
	note __, 0
	note A_, 0
	note __, 0
	note G#, 0
	note __, 0
	note F#, 0
	note __, 0

Music_Printer_branch_f0823: ; f0823
	note E_, 0
	note __, 0
	note B_, 0
	note __, 0
	note E_, 0
	note __, 0
	note B_, 0
	note __, 0
	note E_, 0
	note __, 0
	note B_, 0
	note __, 0
	note E_, 0
	note __, 0
	note B_, 0
	note __, 0
	note E_, 0
	note __, 0
	note B_, 0
	note __, 0
	note E_, 0
	note __, 0
	note B_, 0
	note __, 0
	note E_, 0
	note __, 0
	note B_, 0
	note __, 0
	note E_, 0
	note __, 0
	note B_, 0
	note __, 0
	note F#, 0
	note __, 0
	note A_, 0
	note __, 0
	note F#, 0
	note __, 0
	note A_, 0
	note __, 0
	note F#, 0
	note __, 0
	octave 5
	note C#, 0
	note C_, 0
	note C#, 0
	note __, 0
	octave 4
	note F#, 0
	note __, 0
	note E_, 0
	note __, 0
	note G#, 0
	note __, 0
	note E_, 0
	note __, 0
	note G#, 0
	note __, 0
	note E_, 0
	note __, 0
	octave 5
	note E_, 0
	note D#, 0
	note E_, 0
	note __, 0
	octave 4
	note D#, 0
	note __, 0
	note E_, 0
	note __, 0
	note B_, 0
	note __, 0
	note E_, 0
	note __, 0
	note B_, 0
	note __, 0
	note E_, 0
	note __, 0
	note B_, 0
	note __, 0
	note E_, 0
	note __, 0
	note B_, 0
	note __, 0
	note E_, 0
	note __, 0
	note B_, 0
	note __, 0
	note E_, 0
	note __, 0
	note B_, 0
	note __, 0
	note E_, 0
	note __, 0
	note B_, 0
	note __, 0
	note E_, 0
	note __, 0
	note B_, 0
	note __, 0
	note F#, 0
	note __, 0
	note A_, 0
	note __, 0
	note F#, 0
	note __, 0
	note A_, 0
	note __, 0
	note B_, 0
	note __, 0
	note A_, 0
	note __, 0
	note G#, 0
	note __, 0
	note F#, 0
	note __, 0
	note E_, 0
	note __, 0
	note B_, 0
	note __, 0
	note E_, 0
	note __, 0
	note B_, 0
	note __, 0
	note E_, 0
	note __, 0
	octave 3
	note B_, 0
	note __, 0
	octave 4
	note C#, 0
	note __, 0
	note D_, 0
	note __, 0
	note D#, 0
	note __, 0
	note F#, 0
	note __, 0
	octave 3
	note B_, 0
	note __, 0
	octave 4
	note F#, 0
	note __, 0
	note D#, 0
	note __, 0
	note F#, 0
	note __, 0
	octave 3
	note B_, 0
	note __, 0
	octave 4
	note F#, 0
	note __, 0
	note E_, 0
	note __, 0
	note G#, 0
	note __, 0
	octave 3
	note B_, 0
	note __, 0
	octave 4
	note G#, 0
	note __, 0
	note E_, 0
	note __, 0
	note G#, 0
	note __, 0
	octave 3
	note B_, 0
	note __, 0
	octave 4
	note G#, 0
	note __, 0
	note F#, 0
	note __, 0
	note A_, 0
	note __, 0
	note C#, 0
	note __, 0
	note A_, 0
	note __, 0
	note F#, 0
	note __, 0
	note A_, 0
	note __, 0
	note C#, 0
	note __, 0
	note A_, 0
	note __, 0
	note B_, 0
	note A#, 0
	note B_, 0
	note __, 0
	note E_, 0
	note __, 0
	note F#, 0
	note __, 0
	note G#, 0
	note __, 0
	octave 3
	note B_, 0
	note __, 0
	octave 4
	note C#, 0
	note __, 0
	note D_, 0
	note __, 0
	note D#, 0
	note __, 0
	note F#, 0
	note __, 0
	octave 3
	note B_, 0
	note __, 0
	octave 4
	note F#, 0
	note __, 0
	note D#, 0
	note __, 0
	note F#, 0
	note __, 0
	octave 3
	note B_, 0
	note __, 0
	octave 4
	note F#, 0
	note __, 0
	note E_, 0
	note __, 0
	note G#, 0
	note __, 0
	octave 3
	note B_, 0
	note __, 0
	octave 4
	note G#, 0
	note __, 0
	note E_, 0
	note __, 0
	note G#, 0
	note __, 0
	octave 3
	note B_, 0
	note __, 0
	octave 4
	note G#, 0
	note __, 0
	note F#, 0
	note __, 0
	note A_, 0
	note __, 0
	note C#, 0
	note __, 0
	note A_, 0
	note __, 0
	note F#, 0
	note __, 0
	note A_, 0
	note __, 0
	note F#, 0
	note __, 0
	note D#, 0
	note __, 0
	note B_, 0
	note __, 0
	note B_, 0
	note __, 0
	note A_, 0
	note __, 0
	note A_, 0
	note __, 0
	note G#, 0
	note __, 0
	octave 3
	note B_, 0
	note __, 0
	octave 4
	note C#, 0
	note __, 0
	note D#, 0
	note __, 0
	loopchannel 0, Music_Printer_branch_f0823
; f0941
