; from Pokemon Prism

Music_Route216:
	channel_count 4
	channel 1, Music_Route216_Ch1
	channel 2, Music_Route216_Ch2
	channel 3, Music_Route216_Ch3
	channel 4, Music_Route216_Ch4

Music_Route216_Ch1:
	tempo $C0
	volume 7, 7
	note_type 12, 10, 6
	duty_cycle 1
	pitch_offset $0001
	octave 3
	rest 16
	rest 12
	octave 2
	note D_, 2
	octave 3
	note E_, 16
	rest 14
	octave 2
	note D_, 2
	octave 3
	note E_, 16
	rest 14
	octave 2
	note D_, 2
	octave 3
	note D_, 16
	rest 14
	octave 2
	note C_, 2
	octave 3
	note D_, 16
	note_type 6, 11, 2
	rest 1
	octave 5
	note E_, 1
	note C#, 1
	octave 4
	note A_, 1
	note F#, 5
	volume_envelope 8, 2
	octave 5
	note E_, 1
	note C#, 1
	octave 4
	note A_, 1
	note F#, 5
	volume_envelope 5, 2
	octave 5
	note E_, 1
	note C#, 1
	octave 4
	note A_, 1
	note F#, 8
	volume_envelope 10, 6
	octave 2
	note D_, 4
	octave 3
	note E_, 16
	rest 16
	rest 1
	volume_envelope 11, 2
	octave 5
	note E_, 1
	note C_, 1
	octave 4
	note A_, 1
	note F_, 5
	volume_envelope 8, 2
	octave 5
	note E_, 1
	note C_, 1
	octave 4
	note A_, 1
	note F_, 5
	volume_envelope 5, 2
	octave 5
	note E_, 1
	note C_, 1
	octave 4
	note A_, 1
	note F_, 8
	volume_envelope 10, 6
	octave 2
	note D_, 4
	octave 3
	note E_, 16
	rest 16
	rest 1
	volume_envelope 11, 2
	octave 5
	note D_, 1
	octave 4
	note B_, 1
	note G_, 1
	note D_, 5
	volume_envelope 8, 2
	octave 5
	note D_, 1
	octave 4
	note B_, 1
	note G_, 1
	note D_, 5
	volume_envelope 5, 2
	octave 5
	note D_, 1
	octave 4
	note B_, 1
	note G_, 1
	note D_, 8
	volume_envelope 10, 6
	octave 2
	note D_, 4
	octave 3
	note D_, 16
	rest 16
	rest 1
	volume_envelope 11, 2
	octave 5
	note D_, 1
	octave 4
	note B_, 1
	note G_, 1
	note C_, 5
	volume_envelope 8, 2
	octave 5
	note D_, 1
	octave 4
	note B_, 1
	note G_, 1
	note C_, 5
	volume_envelope 5, 2
	octave 5
	note D_, 1
	octave 4
	note B_, 1
	note G_, 1
	note C_, 8
	volume_envelope 10, 7
	octave 2
	note C_, 4
	note_type 15, 10, 7
	octave 3
	note D_, 8
	note_type 12, 10, 7
	note D_, 4
	note E_, 4
Music_Route216_Ch1_loop:
	note F#, 4
	note D_, 4
	note E_, 4
	note A_, 4
	note G_, 8
	note D_, 8
	note A_, 4
	note E_, 4
	note G_, 4
	note_type 15, 10, 4
	note F#, 16
	note_type 12, 10, 7
	note F#, 2
	note D_, 2
	note_type 8, 10, 7
	note E_, 2
	note F#, 1
	note D_, 2
	octave 2
	note A_, 7
	octave 3
	note A_, 6
	note G_, 12
	note D_, 12
	note A_, 3
	note F#, 3
	note G_, 2
	note A_, 1
	note F#, 2
	note D_, 7
	note_type 15, 10, 4
	octave 4
	note D_, 16
	note_type 8, 10, 7
	octave 3
	note F#, 16
	rest 1
	note_type 4, 10, 7
	note G_, 1
	note G#, 1
	note A_, 6
	note G#, 2
	note G_, 2
	note F#, 2
	note F_, 9
	note D_, 9
	note G#, 1
	note A_, 11
	note D_, 6
	note A_, 6
	note B_, 1
	octave 4
	note C_, 5
	note_type 12, 10, 7
	octave 3
	note B_, 12
	note D_, 2
	note E_, 2
	note F_, 2
	note G_, 2
	note A_, 2
	note G_, 6
	note F#, 2
	note G_, 2
	note_type 8, 10, 2
	duty_cycle 0
	note A_, 2
	note D_, 1
	note E_, 2
	note F#, 1
	volume_envelope 8, 2
	note A_, 2
	note D_, 1
	note E_, 2
	note F#, 1
	volume_envelope 6, 2
	note A_, 2
	note D_, 1
	note E_, 2
	note F#, 1
	volume_envelope 4, 2
	note A_, 2
	note D_, 1
	note E_, 2
	note F#, 1
	volume_envelope 10, 2
	note A_, 2
	note D_, 1
	note F_, 2
	note A_, 1
	volume_envelope 8, 2
	note A_, 2
	note D_, 1
	note F_, 2
	note A_, 1
	volume_envelope 6, 2
	note A_, 2
	note D_, 1
	note F_, 2
	note A_, 1
	volume_envelope 4, 2
	note A_, 2
	note D_, 1
	note F_, 2
	note A_, 1
	volume_envelope 10, 2
	note B_, 2
	note D_, 1
	note G_, 2
	note B_, 1
	volume_envelope 8, 2
	note B_, 2
	note D_, 1
	note G_, 2
	note B_, 1
	volume_envelope 6, 2
	note B_, 2
	note D_, 1
	note G_, 2
	note B_, 1
	volume_envelope 4, 2
	note B_, 2
	note D_, 1
	note G_, 2
	note B_, 1
	volume_envelope 10, 2
	octave 4
	note C_, 2
	octave 3
	note C_, 1
	note G_, 2
	octave 4
	note C_, 1
	volume_envelope 8, 2
	note C_, 2
	octave 3
	note C_, 1
	note G_, 2
	octave 4
	note C_, 1
	volume_envelope 6, 2
	note C_, 2
	octave 3
	note C_, 1
	note G_, 2
	octave 4
	note C_, 1
	volume_envelope 10, 7
	duty_cycle 1
	octave 3
	note C#, 1
	note D_, 1
	note E_, 1
	note F#, 1
	note G_, 1
	note A_, 1
	note_type 4, 10, 7
	note A#, 1
	note B_, 6
	note D_, 5
	note F#, 1
	note G_, 5
	note_type 12, 10, 7
	note D_, 6
	note_type 4, 10, 7
	note F#, 1
	note G_, 3
	note B_, 2
	note A#, 2
	note A_, 2
	note G_, 2
	note F#, 6
	note C#, 6
	note F_, 1
	note F#, 5
	note_type 12, 10, 7
	note C#, 6
	note_type 4, 10, 7
	octave 4
	note C_, 1
	note C#, 4
	octave 3
	note A#, 1
	note A_, 4
	note F#, 2
	octave 4
	note D_, 10
	octave 3
	note B_, 6
	note G_, 6
	note F_, 6
	note E_, 2
	note D_, 4
	note E_, 2
	note F_, 4
	note G_, 2
	note A#, 4
	note A_, 2
	note A#, 1
	note B_, 5
	note A_, 6
	note G_, 4
	note A_, 8
	note B_, 4
	octave 4
	note C#, 1
	octave 3
	note B_, 1
	note A_, 6
	note B_, 4
	octave 4
	note C#, 6
	octave 3
	note A_, 14
	note F#, 1
	note G_, 5
	note_type 12, 10, 7
	note D_, 6
	note_type 4, 10, 7
	note F#, 1
	note G_, 3
	note B_, 2
	note A#, 2
	note A_, 2
	note G_, 2
	note F#, 6
	note C#, 6
	note F_, 1
	note F#, 5
	note C#, 6
	octave 4
	note D#, 6
	note F#, 4
	note G_, 6
	note F#, 2
	note F#, 4
	note F_, 2
	note F#, 10
	note E_, 6
	note D_, 6
	octave 3
	note B_, 2
	note B_, 4
	octave 4
	note C#, 1
	octave 3
	note B_, 1
	note G_, 6
	note G_, 6
	note E_, 4
	octave 2
	note A#, 6
	octave 4
	note C#, 6
	octave 3
	note F#, 6
	octave 4
	note D_, 8
	note D_, 4
	octave 3
	note A#, 6
	note G_, 2
	note E_, 4
	octave 2
	note F#, 2
	note G#, 2
	octave 3
	note D_, 2
	note E_, 2
	note_type 12, 10, 7
	sound_loop 0, Music_Route216_Ch1_loop

Music_Route216_Ch2:
	note_type 6, 11, 2
	duty_cycle 1
	pitch_offset $0002
	octave 4
	rest 13
	rest 16
	octave 5
	note E_, 1
	note C#, 1
	octave 4
	note A_, 1
	note F#, 5
	volume_envelope 8, 2
	octave 5
	note E_, 1
	note C#, 1
	octave 4
	note A_, 1
	note F#, 5
	volume_envelope 5, 2
	octave 5
	note E_, 1
	note C#, 1
	octave 4
	note A_, 1
	note F#, 8
	volume_envelope 11, 6
	octave 1
	note D_, 4
	octave 3
	note C#, 16
	rest 16
	rest 1
	volume_envelope 11, 2
	octave 5
	note E_, 1
	note C_, 1
	octave 4
	note A_, 1
	note F_, 5
	volume_envelope 8, 2
	octave 5
	note E_, 1
	note C_, 1
	octave 4
	note A_, 1
	note F_, 5
	volume_envelope 5, 2
	octave 5
	note E_, 1
	note C_, 1
	octave 4
	note A_, 1
	note F_, 8
	volume_envelope 11, 6
	octave 1
	note D_, 4
	octave 3
	note C_, 16
	rest 16
	rest 1
	volume_envelope 11, 2
	octave 5
	note D_, 1
	octave 4
	note B_, 1
	note G_, 1
	note D_, 5
	volume_envelope 8, 2
	octave 5
	note D_, 1
	octave 4
	note B_, 1
	note G_, 1
	note D_, 5
	volume_envelope 5, 2
	octave 5
	note D_, 1
	octave 4
	note B_, 1
	note G_, 1
	note D_, 8
	volume_envelope 11, 6
	octave 1
	note D_, 4
	octave 2
	note B_, 16
	rest 16
	rest 1
	volume_envelope 11, 2
	octave 5
	note D_, 1
	octave 4
	note B_, 1
	note G_, 1
	note C_, 5
	volume_envelope 8, 2
	octave 5
	note D_, 1
	octave 4
	note B_, 1
	note G_, 1
	note C_, 5
	volume_envelope 5, 2
	octave 5
	note D_, 1
	octave 4
	note B_, 1
	note G_, 1
	note C_, 8
	volume_envelope 11, 7
	octave 1
	note C_, 4
	note_type 12, 11, 7
	octave 2
	note A#, 16
	note_type 14, 11, 7
	vibrato 0, 1, 2
	octave 3
	note A_, 1
	note_type 10, 11, 7
	note B_, 1
	note_type 6, 11, 7
	octave 4
	note C_, 1
	note C#, 11
	note C_, 1
	octave 3
	note B_, 1
	note A#, 2
	note A_, 4
	note F#, 6
	note G_, 1
	note G#, 1
	note_type 12, 11, 7
	note A_, 16
	note_type 6, 11, 7
	note A_, 1
	note B_, 1
	note A_, 1
	note G_, 1
	note F_, 4
	note A_, 4
	octave 4
	note C_, 4
	note D#, 1
	note E_, 6
	note D#, 1
	note D_, 4
	note C_, 2
	octave 3
	note A_, 2
	note B_, 10
	note A#, 1
	note B_, 1
	octave 4
	note C_, 8
	note D_, 12
	note C_, 1
	note D_, 1
	note C_, 2
	octave 3
	note B_, 4
	note G_, 6
	note F#, 1
	note E_, 1
	note D_, 4
	note F#, 1
	note G_, 7
	note_type 4, 11, 7
	note C#, 1
	note D_, 5
	note_type 12, 11, 7
	note G_, 16
	note G_, 1
	note F_, 1
	note D#, 4
	note G_, 3
	note_type 6, 11, 7
	note B_, 1
	octave 4
	note C_, 1
	note D_, 8
	note C_, 6
	octave 3
	note G_, 1
	note A_, 1
	note A#, 6
	octave 4
	note C_, 1
	octave 3
	note A#, 1
	note A_, 8
	note A#, 8
	note_type 8, 11, 7
	octave 4
	note C_, 4
	octave 3
	note D_, 1
	note E_, 1
Music_Route216_Ch2_loop:
	duty_cycle 2
	vibrato 0, 3, 4
	note F#, 9
	note F_, 1
	note E_, 1
	note D#, 1
	note D_, 12
	note_type 4, 11, 7
	note E_, 1
	note F_, 5
	note G_, 4
	note F_, 2
	note A_, 4
	note D_, 6
	note D_, 2
	note F_, 4
	note F_, 2
	note G_, 4
	note F_, 2
	note A_, 4
	note G_, 2
	note A_, 4
	octave 4
	note C_, 2
	note_type 10, 11, 7
	note D_, 8
	note_type 8, 11, 7
	note C#, 1
	note C_, 1
	octave 3
	note B_, 12
	volume_envelope 11, 2
	duty_cycle 0
	octave 4
	note F_, 3
	note D_, 2
	note F_, 3
	note D_, 1
	note F_, 2
	note D_, 1
	note F_, 2
	note D_, 3
	note F_, 1
	note G_, 2
	note A_, 1
	note A#, 3
	volume_envelope 11, 7
	duty_cycle 2
	octave 3
	note A_, 10
	note G#, 1
	note G_, 1
	note F#, 12
	note_type 4, 11, 7
	note E_, 1
	note F_, 5
	note G_, 4
	note F_, 2
	note A_, 4
	note A_, 3
	note G_, 1
	note F_, 2
	note D_, 2
	note F_, 4
	note F_, 2
	note G_, 4
	note F_, 2
	note A_, 4
	note G#, 2
	note A_, 4
	octave 4
	note C#, 2
	note_type 10, 11, 7
	note D_, 8
	note_type 8, 11, 7
	note C#, 1
	note C_, 1
	octave 3
	note B_, 12
	volume_envelope 11, 2
	duty_cycle 0
	octave 4
	note F_, 3
	note D_, 2
	note A_, 3
	note D_, 1
	note F_, 2
	note D_, 1
	note G_, 2
	note D_, 3
	note F_, 1
	note G_, 2
	note A_, 1
	note A#, 3
	volume_envelope 11, 7
	duty_cycle 1
	note F#, 16
	rest 1
	note_type 4, 11, 7
	note G_, 1
	note G#, 1
	note A_, 6
	note G#, 2
	note G_, 2
	note F#, 2
	note F_, 9
	note D_, 9
	note G#, 1
	note A_, 11
	note D_, 6
	note A_, 6
	note B_, 1
	octave 5
	note C_, 5
	note_type 12, 11, 7
	octave 4
	note B_, 12
	note D_, 2
	note E_, 2
	note F_, 2
	note G_, 2
	note A_, 2
	note G_, 6
	note F#, 2
	note_type 8, 11, 7
	note G_, 2
	note_type 4, 11, 7
	duty_cycle 2
	octave 3
	note F#, 1
	note F_, 1
	note F#, 16
	rest 16
	rest 2
	note G_, 1
	note G#, 1
	note A_, 6
	note G_, 4
	note F#, 2
	note F_, 9
	note D_, 9
	note G#, 1
	note A_, 11
	note D_, 6
	note A_, 6
	note B_, 1
	octave 4
	note C_, 5
	note_type 12, 11, 7
	octave 3
	note B_, 12
	note D_, 2
	note E_, 2
	note F_, 2
	note G_, 2
	note A_, 2
	note G_, 6
	note A_, 2
	note A#, 2
	note_type 4, 11, 7
	octave 4
	note A#, 1
	note B_, 6
	note D_, 16
	rest 1
	note E_, 4
	note F#, 1
	note E_, 1
	note C#, 4
	note D_, 2
	octave 3
	note B_, 4
	octave 4
	note C#, 2
	note D_, 4
	note B_, 2
	note A_, 6
	note F_, 1
	note F#, 16
	rest 1
	note D#, 6
	note F#, 6
	note A_, 4
	note B_, 1
	note A_, 1
	note F#, 4
	note A_, 2
	note G_, 10
	note F#, 6
	note D#, 1
	note E_, 5
	note D_, 8
	octave 3
	note A#, 6
	octave 4
	note D_, 6
	octave 3
	note A#, 6
	octave 4
	note C#, 1
	note D_, 5
	note C#, 6
	octave 3
	note B_, 4
	octave 4
	note C#, 8
	note D_, 4
	note E_, 1
	note D_, 1
	note C#, 6
	note D_, 4
	note E_, 6
	note D_, 2
	note A#, 1
	note B_, 5
	note_type 12, 11, 7
	note D_, 6
	note_type 8, 11, 7
	note E_, 2
	note_type 4, 11, 7
	note F#, 1
	note E_, 1
	note C#, 4
	note D_, 2
	octave 3
	note B_, 4
	octave 4
	note C#, 2
	note D_, 4
	note B_, 2
	octave 5
	note C#, 6
	note_type 12, 11, 7
	octave 4
	note A_, 6
	note F#, 2
	note_type 8, 11, 7
	note A_, 2
	octave 5
	note D_, 3
	note E_, 1
	octave 4
	note B_, 2
	note A#, 1
	note A_, 5
	note G_, 3
	note F#, 4
	note D_, 2
	note_type 4, 11, 7
	note E_, 1
	note D_, 1
	octave 3
	note B_, 6
	note A#, 6
	octave 4
	note C#, 10
	note E_, 6
	octave 3
	note A_, 6
	octave 4
	note E_, 8
	note F#, 4
	note D_, 6
	octave 3
	note A#, 2
	note A_, 2
	note B_, 2
	octave 4
	note C#, 2
	note D_, 2
	note D#, 2
	note E_, 2
	octave 3
	note_type 8, 11, 7
	sound_loop 0, Music_Route216_Ch2_loop

Music_Route216_Ch3:
	note_type 12, 1, 2
	octave 2
	note D_, 4
	rest 4
	note D_, 1
	rest 1
	note D_, 2
	rest 4
	note D_, 4
	rest 4
	note D_, 1
	rest 1
	note D_, 2
	octave 1
	note A_, 1
	rest 1
	octave 2
	note D_, 1
	rest 1
	note D_, 4
	rest 4
	note D_, 1
	rest 1
	note D_, 2
	rest 4
	note D_, 4
	rest 4
	note D_, 1
	rest 1
	note D_, 2
	octave 1
	note A_, 1
	rest 1
	octave 2
	note D_, 1
	rest 1
	note D_, 4
	rest 4
	note D_, 1
	rest 1
	note D_, 2
	rest 4
	note D_, 4
	rest 4
	note D_, 1
	rest 1
	note D_, 2
	octave 1
	note B_, 1
	rest 1
	octave 2
	note D_, 1
	rest 1
	note D_, 4
	rest 4
	note D_, 1
	rest 1
	note D_, 2
	rest 4
	note C_, 4
	rest 4
	note C_, 1
	rest 1
	note C_, 2
	octave 1
	note G_, 1
	rest 1
	octave 2
	note C_, 1
	rest 1
	note C_, 4
	rest 4
	note C_, 1
	rest 1
	note C_, 4
	note C#, 2
	note D_, 4
	rest 4
	note D_, 1
	rest 1
	note D_, 2
	octave 1
	note A_, 1
	rest 1
	octave 2
	note D_, 1
	rest 1
	note D_, 4
	rest 4
	note D_, 1
	rest 1
	note D_, 2
	rest 4
	note D_, 4
	rest 4
	note D_, 1
	rest 1
	note D_, 2
	octave 1
	note A_, 1
	rest 1
	octave 2
	note D_, 1
	rest 1
	note D_, 4
	rest 4
	note D_, 1
	rest 1
	note D_, 2
	rest 4
	note D_, 4
	rest 4
	note D_, 1
	rest 1
	note D_, 2
	octave 1
	note B_, 1
	rest 1
	octave 2
	note D_, 1
	rest 1
	note D_, 4
	rest 4
	note D_, 1
	rest 1
	note D_, 2
	rest 4
	note C_, 4
	rest 4
	note C_, 1
	rest 1
	note C_, 2
	octave 1
	note A#, 1
	rest 1
	octave 2
	note C_, 1
	rest 3
	note C_, 2
	rest 2
	note C_, 2
	octave 1
	note A_, 1
	rest 1
	octave 2
	note A_, 2
	octave 1
	note A_, 1
	rest 1
	octave 2
	note G_, 2
Music_Route216_Ch3_loop:
	note_type 8, 1, 2
	note D_, 2
	rest 4
	note D_, 1
	rest 4
	note_type 4, 1, 2
	note A_, 1
	rest 1
	note D_, 3
	rest 3
	note D_, 6
	rest 4
	note D_, 2
	octave 1
	note A_, 6
	octave 2
	note D_, 4
	rest 8
	note D_, 2
	rest 8
	note A_, 1
	rest 1
	note D_, 3
	rest 3
	note D_, 6
	rest 4
	note D_, 2
	note C_, 6
	note D_, 4
	rest 8
	note D_, 2
	rest 8
	note A_, 1
	rest 1
	note D_, 3
	rest 3
	note D_, 6
	rest 4
	note D_, 2
	octave 1
	note B_, 6
	octave 2
	note C_, 4
	rest 8
	note C_, 2
	rest 8
	note G_, 1
	rest 1
	note C_, 3
	rest 3
	note C_, 6
	rest 4
	note C_, 2
	note G_, 6
	note D_, 4
	rest 8
	note D_, 2
	rest 8
	note A_, 1
	rest 1
	note D_, 3
	rest 3
	note D_, 6
	rest 4
	note D_, 2
	octave 1
	note A_, 6
	octave 2
	note D_, 4
	rest 8
	note D_, 2
	rest 8
	note A_, 1
	rest 1
	note D_, 3
	rest 3
	note D_, 6
	rest 4
	note D_, 2
	note C_, 6
	note D_, 4
	rest 8
	note D_, 2
	rest 8
	note A_, 1
	rest 1
	note D_, 3
	rest 3
	note D_, 6
	rest 4
	note D_, 2
	octave 1
	note B_, 6
	octave 2
	note C_, 4
	rest 8
	note C_, 2
	rest 8
	note G_, 1
	rest 1
	note C_, 3
	rest 3
	note C_, 6
	rest 4
	note C_, 2
	note G_, 6
	note D_, 4
	rest 8
	note D_, 2
	rest 8
	note A_, 1
	rest 1
	note D_, 3
	rest 3
	note D_, 6
	rest 4
	note D_, 2
	note C#, 6
	note D_, 4
	rest 8
	note D_, 2
	rest 8
	note A_, 1
	rest 1
	note D_, 3
	rest 3
	note D_, 6
	rest 4
	note D_, 2
	note C_, 6
	note D_, 4
	rest 8
	note D_, 2
	rest 8
	note G_, 1
	rest 1
	note D_, 3
	rest 3
	note D_, 6
	rest 4
	note D_, 2
	octave 1
	note B_, 6
	octave 2
	note C_, 4
	rest 8
	note C_, 2
	rest 8
	note G_, 1
	rest 1
	note C_, 3
	rest 3
	note C_, 6
	note C_, 2
	note C#, 8
	note D_, 2
	note D_, 6
	rest 6
	octave 1
	note A_, 2
	rest 8
	octave 2
	note A_, 1
	rest 1
	note D_, 4
	rest 2
	octave 1
	note A_, 4
	rest 2
	octave 2
	note D_, 4
	note_type 3, 1, 2
	note A_, 1
	note_type 5, 1, 2
	rest 1
	note_type 8, 1, 2
	note F#, 2
	note E_, 1
	note D_, 3
	rest 3
	octave 1
	note A_, 1
	rest 4
	note_type 4, 1, 2
	octave 2
	note A_, 1
	rest 1
	note D_, 3
	rest 3
	note D_, 6
	rest 4
	note D_, 2
	note C_, 6
	note D_, 6
	rest 6
	octave 1
	note B_, 2
	rest 8
	octave 2
	note A_, 1
	rest 1
	note D_, 3
	rest 3
	note D_, 6
	rest 4
	note D_, 2
	octave 1
	note B_, 6
	octave 2
	note C_, 4
	rest 6
	note C_, 2
	octave 1
	note G_, 4
	rest 6
	octave 2
	note G_, 1
	rest 1
	note C_, 3
	rest 3
	note C_, 5
	rest 1
	octave 1
	note A_, 4
	rest 6
	octave 2
	note C#, 2
	note_type 15, 1, 2
	note G_, 1
	note_type 9, 1, 2
	rest 1
	note_type 7, 1, 2
	note G_, 1
	note_type 13, 1, 2
	rest 5
	note_type 15, 1, 2
	note F_, 1
	note_type 9, 1, 2
	rest 1
	note_type 7, 1, 2
	note F_, 1
	note_type 13, 1, 2
	rest 5
	note_type 15, 1, 2
	note F#, 1
	note_type 9, 1, 2
	rest 1
	note_type 7, 1, 2
	note F#, 1
	note_type 13, 1, 2
	rest 5
	note_type 15, 1, 2
	note D#, 1
	note_type 9, 1, 2
	rest 1
	note_type 7, 1, 2
	note D#, 1
	note_type 11, 1, 2
	rest 3
	note_type 7, 1, 2
	note F#, 1
	rest 2
	note_type 3, 1, 2
	note D#, 1
	note_type 8, 1, 2
	rest 1
	note_type 5, 1, 2
	note E_, 3
	note_type 9, 1, 2
	rest 1
	note_type 7, 1, 2
	note E_, 1
	note_type 11, 1, 2
	rest 3
	note_type 12, 1, 2
	note E_, 2
	note_type 3, 1, 2
	octave 1
	note A#, 1
	note_type 5, 1, 2
	rest 1
	note A#, 3
	note_type 9, 1, 2
	rest 1
	note_type 7, 1, 2
	note A#, 1
	note_type 13, 1, 2
	rest 5
	note_type 15, 1, 2
	note A_, 1
	note_type 9, 1, 2
	rest 1
	note_type 7, 1, 2
	note A_, 1
	note_type 11, 1, 2
	rest 3
	note A_, 1
	note_type 13, 1, 2
	rest 1
	note_type 3, 1, 2
	note A_, 1
	note_type 5, 1, 2
	rest 1
	note_type 11, 1, 2
	note A_, 1
	note_type 5, 1, 2
	rest 1
	note_type 3, 1, 2
	octave 2
	note A_, 1
	note_type 5, 1, 2
	rest 1
	note_type 11, 1, 2
	octave 1
	note A_, 1
	rest 3
	note A_, 2
	note_type 7, 1, 2
	rest 1
	note_type 15, 1, 2
	octave 2
	note G_, 1
	note_type 9, 1, 2
	rest 1
	note_type 7, 1, 2
	note G_, 1
	note_type 13, 1, 2
	rest 5
	note_type 15, 1, 2
	note F_, 1
	note_type 9, 1, 2
	rest 1
	note_type 3, 1, 2
	octave 3
	note C#, 1
	note_type 13, 1, 2
	rest 1
	note_type 3, 1, 2
	octave 2
	note C#, 1
	note_type 5, 1, 2
	rest 1
	note_type 7, 1, 2
	note C#, 1
	note_type 9, 1, 2
	rest 1
	note_type 3, 1, 2
	note C#, 1
	note_type 5, 1, 2
	rest 1
	note_type 12, 1, 2
	note C#, 2
	note_type 15, 1, 2
	note F#, 1
	note_type 9, 1, 2
	rest 1
	note_type 7, 1, 2
	note F#, 1
	note_type 13, 1, 2
	rest 5
	note_type 15, 1, 2
	note D#, 1
	note_type 9, 1, 2
	rest 1
	note_type 7, 1, 2
	octave 1
	note B_, 1
	note_type 9, 1, 2
	rest 1
	note_type 3, 1, 2
	note B_, 1
	note_type 5, 1, 2
	rest 1
	note_type 7, 1, 2
	note B_, 1
	note_type 9, 1, 2
	rest 1
	note_type 3, 1, 2
	note B_, 1
	note_type 5, 1, 2
	rest 1
	note_type 12, 1, 2
	note B_, 2
	note_type 15, 1, 2
	note G_, 1
	note_type 9, 1, 2
	rest 1
	note_type 7, 1, 2
	note G_, 1
	note_type 11, 1, 2
	rest 3
	note_type 12, 1, 2
	note G_, 2
	note_type 3, 1, 2
	note A_, 1
	note_type 5, 1, 2
	rest 1
	note A_, 3
	note_type 9, 1, 2
	rest 1
	note_type 7, 1, 2
	note A_, 1
	rest 2
	note_type 15, 1, 2
	note A#, 1
	note_type 9, 1, 2
	rest 1
	note_type 8, 1, 2
	note A_, 2
	octave 2
	note C#, 1
	note_type 2, 1, 2
	rest 1
	note_type 15, 1, 2
	note D_, 1
	note_type 9, 1, 2
	rest 1
	note_type 7, 1, 2
	note D_, 1
	note_type 11, 1, 2
	rest 3
	note D_, 1
	note_type 13, 1, 2
	rest 1
	note_type 3, 1, 2
	note D_, 1
	note_type 5, 1, 2
	rest 1
	note_type 11, 1, 2
	octave 1
	note G_, 1
	note_type 13, 1, 2
	rest 1
	note G_, 1
	note_type 11, 1, 2
	rest 1
	note A_, 1
	note_type 13, 1, 2
	rest 1
	note_type 12, 1, 2
	note A_, 2
	octave 2
	sound_loop 0, Music_Route216_Ch3_loop

Music_Route216_Ch4:
	toggle_noise 0
	drum_speed 12
	drum_note 7, 8
	drum_note 7, 2
	drum_note 7, 6
	drum_note 7, 8
	drum_note 7, 2
	drum_note 7, 6
	drum_note 7, 8
	drum_note 7, 2
	drum_note 7, 6
	drum_note 7, 8
	drum_note 7, 2
	drum_note 7, 6
	drum_note 7, 8
	drum_note 7, 2
	drum_note 7, 6
	drum_note 7, 8
	drum_note 7, 2
	drum_note 7, 6
	drum_note 7, 8
	drum_note 7, 2
	drum_note 7, 6
	drum_note 7, 8
	drum_note 7, 2
	drum_note 7, 6
	drum_note 7, 8
	drum_note 7, 2
	drum_note 7, 6
	drum_note 7, 8
	drum_note 7, 2
	drum_note 7, 6
	drum_note 7, 8
	drum_note 7, 2
	drum_note 7, 6
	drum_note 7, 8
	drum_note 7, 2
	drum_note 7, 6
	drum_note 7, 8
	drum_note 7, 2
	drum_note 7, 6
	drum_note 7, 8
	drum_note 7, 2
	drum_note 7, 6
	drum_note 7, 8
	drum_note 7, 2
	drum_note 7, 6
	drum_note 7, 8
	drum_note 7, 2
	drum_note 7, 6
	drum_note 8, 2
	drum_note 7, 2
	drum_note 8, 2
	drum_note 7, 2
	drum_note 8, 2
	drum_note 10, 2
	drum_speed 8
	drum_note 10, 2
	drum_note 10, 4
Music_Route216_Ch4_loop:
	drum_note 3, 6
	drum_note 10, 6
	drum_note 3, 2
	drum_note 3, 1
	drum_note 3, 3
	drum_note 10, 6
	drum_note 3, 6
	drum_note 10, 6
	drum_note 3, 2
	drum_note 3, 1
	drum_note 3, 3
	drum_note 10, 6
	drum_note 3, 6
	drum_note 10, 6
	drum_note 3, 2
	drum_note 3, 1
	drum_note 3, 3
	drum_note 10, 6
	drum_note 3, 6
	drum_note 10, 6
	drum_note 3, 2
	drum_note 3, 1
	drum_note 3, 3
	drum_note 10, 3
	drum_note 10, 3
	drum_note 3, 6
	drum_note 10, 6
	drum_note 3, 2
	drum_note 3, 1
	drum_note 3, 3
	drum_note 10, 6
	drum_note 3, 6
	drum_note 10, 6
	drum_note 3, 2
	drum_note 3, 1
	drum_note 3, 3
	drum_note 10, 6
	drum_note 3, 6
	drum_note 10, 6
	drum_note 3, 2
	drum_note 3, 1
	drum_note 3, 3
	drum_note 10, 6
	drum_note 3, 6
	drum_note 10, 6
	drum_note 3, 2
	drum_note 3, 1
	drum_note 3, 3
	drum_note 10, 3
	drum_note 10, 3
	drum_note 6, 3
	drum_note 8, 3
	drum_note 6, 2
	drum_note 6, 1
	drum_note 6, 3
	drum_note 6, 3
	drum_note 8, 2
	drum_note 8, 1
	drum_note 12, 6
	drum_note 6, 3
	drum_note 8, 3
	drum_note 6, 2
	drum_note 6, 1
	drum_note 6, 3
	drum_note 6, 3
	drum_note 8, 2
	drum_note 8, 1
	drum_note 12, 6
	drum_note 6, 3
	drum_note 8, 3
	drum_note 6, 2
	drum_note 6, 1
	drum_note 6, 3
	drum_note 6, 3
	drum_note 8, 2
	drum_note 8, 1
	drum_note 12, 6
	drum_note 6, 3
	drum_note 8, 3
	drum_note 6, 2
	drum_note 6, 1
	drum_note 6, 3
	drum_note 6, 3
	drum_note 8, 2
	drum_note 8, 1
	drum_note 12, 3
	drum_note 12, 3
	drum_note 6, 3
	drum_note 8, 3
	drum_note 6, 2
	drum_note 6, 1
	drum_note 6, 3
	drum_note 6, 3
	drum_note 8, 2
	drum_note 8, 1
	drum_note 12, 6
	drum_note 6, 3
	drum_note 8, 3
	drum_note 6, 2
	drum_note 6, 1
	drum_note 6, 3
	drum_note 6, 3
	drum_note 8, 2
	drum_note 8, 1
	drum_note 12, 6
	drum_note 6, 3
	drum_note 8, 3
	drum_note 6, 2
	drum_note 6, 1
	drum_note 6, 3
	drum_note 6, 3
	drum_note 8, 2
	drum_note 8, 1
	drum_note 12, 6
	drum_note 6, 3
	drum_note 8, 3
	drum_note 6, 2
	drum_note 6, 1
	drum_note 6, 3
	drum_note 6, 3
	drum_note 8, 2
	drum_note 8, 1
	drum_note 12, 3
	drum_note 12, 3
	drum_note 8, 3
	drum_note 8, 3
	drum_note 3, 2
	drum_note 10, 1
	drum_note 10, 3
	drum_note 3, 3
	drum_note 3, 3
	drum_note 10, 3
	drum_note 9, 3
	drum_note 8, 3
	drum_note 8, 3
	drum_note 3, 2
	drum_note 10, 1
	drum_note 10, 3
	drum_note 3, 3
	drum_note 3, 3
	drum_note 10, 3
	drum_note 9, 3
	drum_note 8, 3
	drum_note 8, 3
	drum_note 3, 2
	drum_note 10, 1
	drum_note 10, 3
	drum_note 3, 3
	drum_note 3, 3
	drum_note 10, 3
	drum_note 9, 3
	drum_note 8, 3
	drum_note 8, 3
	drum_note 3, 2
	drum_note 10, 1
	drum_note 10, 3
	drum_note 3, 3
	drum_note 3, 3
	drum_note 10, 3
	drum_note 9, 2
	drum_note 9, 1
	drum_note 8, 3
	drum_note 8, 3
	drum_note 3, 2
	drum_note 10, 1
	drum_note 10, 3
	drum_note 3, 3
	drum_note 3, 3
	drum_note 10, 3
	drum_note 9, 3
	drum_note 8, 3
	drum_note 8, 3
	drum_note 3, 2
	drum_note 10, 1
	drum_note 10, 3
	drum_note 3, 3
	drum_note 3, 3
	drum_note 10, 3
	drum_note 9, 3
	drum_note 8, 3
	drum_note 8, 3
	drum_note 3, 2
	drum_note 10, 1
	drum_note 10, 3
	drum_note 3, 3
	drum_note 3, 3
	drum_note 10, 3
	drum_note 9, 3
	drum_note 8, 3
	drum_note 8, 3
	drum_note 3, 2
	drum_note 10, 1
	drum_note 10, 3
	drum_note 3, 3
	drum_note 3, 3
	drum_note 10, 3
	drum_note 9, 2
	drum_note 9, 1
	sound_loop 0, Music_Route216_Ch4_loop
