Music_SuicuneBattle: ; 178b81
	dbw $80, Music_SuicuneBattle_Ch1
	dbw $01, Music_SuicuneBattle_Ch2
	dbw $02, Music_SuicuneBattle_Ch3
; 178b8a


Music_SuicuneBattle_Ch1: ; 178b8a
	tempo 101
	volume $77
	dutycycle $3
	tone $0002
	vibrato $12, $15
	notetype $c, $b7
	octave 4
	note A_, 0
	note G#, 0
	note G_, 3
	note E_, 1
	note D#, 0
	note D_, 0
	note C#, 3
	octave 3
	note A#, 1
	note A_, 0
	note G#, 0
	note G_, 3
	note E_, 1
	note D#, 0
	note D_, 0
	note C#, 3
	octave 2
	note A#, 1
	notetype $c, $b2
	note A_, 1
	note A_, 3
	note A_, 1
	note A_, 1
	note A_, 3
	note A_, 1
	note A_, 1
	note A_, 3
	note A_, 1
	note A_, 1
	note A_, 1
	notetype $c, $b3
	octave 4
	note F_, 3
	note E_, 1
	notetype $c, $b2
	octave 2
	note A_, 3
	note A_, 1
	note A_, 1
	note A_, 3
	note A_, 1
	note A_, 1
	note A_, 3
	note A_, 1
	note A_, 1
	note A_, 1
	notetype $c, $b3
	octave 4
	note F_, 3
	note E_, 1
	notetype $c, $b2
	octave 2
	note A_, 3
	note A_, 1
	note A_, 1
	note A_, 3
	note A_, 1
	note A_, 1
	note A_, 3
	note A_, 1
	note A_, 1
	note A_, 1
	notetype $c, $b3
	octave 4
	note F_, 3
	note E_, 1
	notetype $c, $b2
	octave 2
	note A_, 3
	note A_, 1
	note A_, 1
	note A_, 3
	note A_, 1
	note A_, 1
	note A_, 3
	note A_, 1
	note A_, 1
	note A_, 1
	note A_, 0
	note B_, 0
	octave 3
	note E_, 0
	note G#, 0

Music_SuicuneBattle_branch_178bfc: ; 178bfc
	notetype $c, $b4
	octave 2
	note A_, 1
	note B_, 1
	note E_, 1
	octave 3
	note E_, 3
	octave 2
	note B_, 1
	note A_, 1
	note E_, 1
	note D_, 1
	note E_, 1
	note D_, 1
	note A_, 3
	note E_, 1
	note D_, 1
	note E_, 1
	octave 3
	note D_, 1
	octave 2
	note A_, 1
	octave 3
	note D_, 1
	note E_, 1
	note A_, 1
	note E_, 1
	note D_, 1
	octave 2
	note A_, 1
	octave 3
	note D_, 1
	note E_, 1
	note A_, 1
	note E_, 1
	note D_, 1
	octave 2
	note A_, 1
	octave 3
	note D_, 1
	note E_, 1
	note C_, 1
	note D_, 1
	octave 2
	note G_, 1
	octave 3
	note G_, 3
	note D_, 1
	note C_, 1
	octave 2
	note G_, 1
	octave 3
	note C_, 1
	note D_, 1
	octave 2
	note G_, 1
	octave 3
	note F_, 3
	note E_, 1
	note D_, 1
	note F_, 1
	note G_, 1
	note E_, 1
	octave 2
	note G_, 1
	octave 3
	note E_, 1
	note G_, 1
	note A_, 5
	note G_, 3
	note F_, 3
	note E_, 1
	note D_, 5
	octave 2
	note A_, 1
	note B_, 1
	note E_, 1
	octave 3
	note E_, 3
	octave 2
	note B_, 1
	note A_, 1
	note E_, 1
	note D_, 1
	note E_, 1
	note D_, 1
	note A_, 3
	note E_, 1
	note D_, 1
	note E_, 1
	octave 3
	note D_, 1
	octave 2
	note A_, 1
	octave 3
	note D_, 1
	note E_, 1
	note A_, 1
	note E_, 1
	note D_, 1
	octave 2
	note A_, 1
	octave 3
	note D_, 1
	note E_, 1
	note A_, 1
	note E_, 1
	note D_, 1
	octave 2
	note A_, 1
	octave 3
	note D_, 1
	note E_, 1
	note C_, 1
	note D_, 1
	octave 2
	note G_, 1
	octave 3
	note G_, 3
	note D_, 1
	note C_, 1
	octave 2
	note G_, 1
	octave 3
	note C_, 1
	note D_, 1
	octave 2
	note G_, 1
	octave 3
	note F_, 3
	note E_, 1
	note D_, 1
	note F_, 1
	octave 4
	note C_, 1
	octave 3
	note G_, 1
	note C_, 1
	note A_, 3
	note G_, 1
	note F_, 1
	note A_, 1
	note G_, 1
	note A_, 1
	note C_, 1
	octave 4
	note C_, 3
	octave 3
	note A_, 1
	note G_, 1
	note C_, 1
	notetype $c, $b3
	octave 2
	note B_, 1
	octave 3
	note C_, 1
	note __, 1
	note E_, 3
	note D_, 1
	note C_, 1
	octave 2
	note B_, 1
	note B_, 1
	octave 3
	note C_, 1
	note E_, 1
	note D_, 1
	note C_, 1
	octave 2
	note B_, 1
	note A_, 1
	note B_, 1
	octave 3
	note C_, 1
	octave 2
	note G_, 1
	note __, 1
	notetype $c, $b6
	octave 3
	note G_, 9
	notetype $c, $b3
	note C_, 1
	octave 2
	note G_, 1
	note __, 1
	notetype $c, $b7
	octave 3
	note G_, 9
	notetype $c, $b3
	octave 2
	note B_, 1
	octave 3
	note C_, 1
	note __, 1
	note E_, 3
	note D_, 1
	note C_, 1
	octave 2
	note B_, 1
	note B_, 1
	octave 3
	note C_, 1
	note E_, 1
	note D_, 1
	note C_, 1
	octave 2
	note B_, 1
	note A_, 1
	note B_, 1
	octave 3
	note G_, 1
	note C_, 1
	octave 4
	note C_, 1
	octave 3
	note G_, 1
	note F#, 1
	octave 2
	note B_, 1
	octave 3
	note B_, 1
	note F#, 1
	note E_, 1
	octave 2
	note A_, 1
	octave 3
	note A_, 1
	note E_, 1
	note C_, 1
	note G_, 1
	octave 4
	note C_, 1
	octave 3
	note G_, 1
	notetype $c, $b2
	octave 2
	note B_, 1
	note B_, 5
	note B_, 1
	note B_, 5
	note B_, 1
	note B_, 5
	note B_, 1
	notetype $c, $b4
	octave 3
	note C_, 5
	notetype $c, $b2
	octave 2
	note B_, 1
	note B_, 1
	notetype $c, $b5
	octave 1
	note F#, 3
	notetype $c, $b2
	octave 2
	note B_, 1
	note B_, 1
	notetype $c, $b5
	octave 1
	note F#, 3
	notetype $c, $b2
	octave 2
	note B_, 1
	note B_, 1
	notetype $c, $b5
	octave 1
	note F#, 3
	notetype $c, $b2
	octave 2
	note B_, 1
	octave 3
	note C_, 1
	octave 2
	note B_, 0
	octave 3
	note F#, 0
	note A_, 0
	octave 4
	note C_, 0
	notetype $c, $b2
	octave 3
	note B_, 1
	note B_, 1
	notetype $c, $b5
	octave 1
	note F#, 3
	notetype $c, $b2
	octave 3
	note B_, 1
	note B_, 1
	notetype $c, $b5
	octave 1
	note F#, 3
	notetype $c, $b2
	octave 3
	note B_, 1
	note B_, 1
	notetype $c, $b5
	octave 1
	note F#, 3
	notetype $c, $b2
	octave 3
	note B_, 1
	notetype $c, $b5
	octave 4
	note C_, 5
	notetype $c, $b2
	octave 3
	note B_, 1
	note B_, 1
	notetype $c, $b4
	octave 1
	note F#, 3
	notetype $c, $b2
	octave 3
	note B_, 1
	note B_, 1
	notetype $c, $b4
	octave 1
	note F#, 3
	notetype $c, $b2
	octave 3
	note B_, 1
	note B_, 1
	notetype $c, $b4
	octave 1
	note F#, 3
	notetype $c, $b2
	octave 3
	note B_, 1
	notetype $c, $b5
	octave 4
	note C_, 5
	notetype $c, $b7
	octave 2
	note B_, 7
	note E_, 7
	octave 3
	note C_, 7
	octave 2
	note A_, 7
	note B_, 7
	note E_, 7
	note F_, 9
	note C_, 1
	note D_, 1
	note C_, 1
	notetype $c, $a0
	octave 1
	note F#, 7
	note B_, 7
	note G_, 7
	octave 2
	note C_, 7
	octave 1
	note B_, 7
	note E_, 7
	note F_, 7
	notetype $c, $a7
	note F_, 7
	note __, 15
	note __, 15
	note __, 15
	note __, 15
	note __, 15
	note __, 15
	note __, 15
	note __, 15
	note __, 15
	note __, 15
	note __, 15
	note __, 15
	notetype $c, $b2
	note __, 3
	octave 3
	note D_, 7
	note D_, 7
	note D_, 7
	note D_, 7
	note D_, 7
	note D_, 7
	note D_, 7
	note D_, 7
	note F_, 7
	note F_, 7
	note F_, 7
	note F_, 7
	note F_, 7
	note F_, 7
	note F_, 7
	note F_, 3
	note E_, 7
	note __, 15
	note __, 15
	note __, 15
	note __, 15
	note __, 15
	note __, 15
	note __, 15
	note __, 15
	note __, 15
	note __, 15
	vibrato $8, $24
	dutycycle $2
	notetype $c, $96
	octave 4
	note E_, 5
	note F#, 5
	octave 3
	note A_, 3
	octave 4
	note A_, 15
	vibrato $12, $15
	dutycycle $3
	loopchannel 0, Music_SuicuneBattle_branch_178bfc

Music_SuicuneBattle_Ch2: ; 178dec
	dutycycle $3
	vibrato $14, $34
	tone $0001
	notetype $c, $c3
	octave 5
	note E_, 0
	octave 4
	note E_, 0
	note A_, 1
	octave 5
	note E_, 0
	octave 4
	note E_, 0
	note A_, 1
	octave 5
	note E_, 0
	octave 4
	note E_, 0
	note A_, 1
	octave 5
	note E_, 0
	octave 4
	note E_, 0
	note A_, 1
	octave 5
	note E_, 0
	octave 4
	note E_, 0
	note A_, 1
	octave 5
	note E_, 0
	octave 4
	note E_, 0
	note A_, 1
	octave 5
	note E_, 0
	octave 4
	note E_, 0
	note A_, 1
	octave 5
	note E_, 0
	octave 4
	note E_, 0
	note A_, 5
	notetype $c, $c2
	octave 2
	note E_, 7
	note E_, 7
	note E_, 7
	notetype $c, $c3
	octave 4
	note A#, 3
	notetype $c, $c2
	note A_, 3
	octave 2
	note E_, 7
	note E_, 7
	note E_, 7
	notetype $c, $c3
	octave 4
	note A#, 3
	notetype $c, $c2
	note A_, 3
	octave 4
	note E_, 7
	note E_, 7
	note E_, 7
	notetype $c, $c3
	octave 4
	note A#, 3
	notetype $c, $c2
	note A_, 3
	octave 4
	note E_, 7
	note E_, 7
	note E_, 7
	note E_, 3

Music_SuicuneBattle_branch_178e4e: ; 178e4e
	notetype $c, $c7
	octave 3
	note A_, 7
	note B_, 7
	note D_, 7
	notetype $c, $b0
	octave 4
	note D_, 7
	notetype $c, $b6
	note D_, 7
	vibrato $10, $24
	dutycycle $2
	notetype $c, $a4
	octave 5
	note A_, 5
	note B_, 5
	note D_, 3
	octave 6
	note D_, 7
	vibrato $14, $34
	dutycycle $3
	notetype $c, $c7
	octave 4
	note C_, 7
	note D_, 7
	octave 3
	note G_, 7
	octave 4
	note F_, 7
	notetype $c, $b0
	note E_, 9
	notetype $c, $b7
	note E_, 5
	notetype $c, $a5
	octave 2
	note G_, 3
	note A_, 3
	note G_, 3
	note B_, 3
	notetype $c, $c7
	octave 3
	note A_, 7
	note B_, 7
	note D_, 7
	notetype $c, $c7
	octave 4
	note D_, 7
	notetype $c, $4c
	note D_, 3
	notetype $c, $c6
	note D_, 3
	notetype $c, $a4
	vibrato $8, $24
	dutycycle $2
	octave 5
	note A_, 5
	note B_, 5
	note D_, 3
	octave 6
	note D_, 7
	vibrato $14, $34
	notetype $c, $c7
	dutycycle $3
	octave 4
	note C_, 7
	note D_, 7
	octave 3
	note G_, 7
	octave 4
	note F_, 7
	notetype $c, $4c
	note E_, 7
	notetype $c, $c7
	note E_, 7
	notetype $c, $c6
	note C_, 7
	note G_, 7
	notetype $c, $c2
	octave 3
	note F#, 1
	note G_, 1
	note __, 1
	note B_, 3
	note A_, 1
	note G_, 1
	note F#, 1
	note F#, 1
	note G_, 1
	note B_, 1
	note A_, 1
	note G_, 1
	note F#, 1
	note E_, 1
	note F#, 1
	note G_, 1
	note C_, 1
	note __, 1
	notetype $c, $c7
	octave 4
	note C_, 9
	notetype $c, $c3
	octave 4
	note G_, 1
	note C_, 1
	note __, 1
	notetype $c, $c7
	octave 5
	note C_, 9
	notetype $c, $c3
	octave 4
	note F#, 1
	note G_, 1
	note __, 1
	note B_, 3
	note A_, 1
	note G_, 1
	note F#, 1
	note F#, 1
	note G_, 1
	note B_, 1
	note A_, 1
	note G_, 1
	note F#, 1
	note E_, 1
	note F#, 1
	notetype $c, $c7
	note G_, 7
	note F#, 7
	note E_, 7
	note G_, 7
	notetype $c, $c2
	octave 3
	note F#, 1
	note F#, 5
	note F#, 1
	note F#, 5
	note F#, 1
	note F#, 5
	note F#, 1
	notetype $c, $b7
	note G_, 5
	notetype $c, $c2
	note F#, 1
	note F#, 1
	notetype $c, $c7
	octave 1
	note B_, 3
	notetype $c, $c2
	octave 3
	note F#, 1
	note F#, 1
	notetype $c, $c7
	octave 1
	note B_, 3
	notetype $c, $c2
	octave 3
	note F#, 1
	note F#, 1
	notetype $c, $c7
	octave 1
	note B_, 3
	notetype $c, $c2
	octave 3
	note F#, 1
	notetype $c, $c7
	note G_, 5
	notetype $c, $c2
	octave 4
	note F#, 1
	note F#, 1
	notetype $c, $c7
	octave 1
	note B_, 3
	notetype $c, $c2
	octave 4
	note F#, 1
	note F#, 1
	notetype $c, $c7
	octave 1
	note B_, 3
	notetype $c, $c2
	octave 4
	note F#, 1
	note F#, 1
	notetype $c, $c7
	octave 1
	note B_, 3
	notetype $c, $c2
	octave 4
	note F#, 1
	notetype $c, $c7
	note G_, 5
	notetype $c, $c2
	note F#, 1
	note F#, 1
	notetype $c, $c7
	octave 1
	note B_, 3
	notetype $c, $c2
	octave 4
	note F#, 1
	note F#, 1
	notetype $c, $c7
	octave 1
	note B_, 3
	notetype $c, $c2
	octave 4
	note F#, 1
	note F#, 1
	notetype $c, $c7
	octave 1
	note B_, 3
	notetype $c, $c2
	octave 4
	note F#, 1
	notetype $c, $c7
	note G_, 5
	notetype $c, $b0
	octave 3
	note F#, 7
	octave 2
	note B_, 7
	octave 3
	note G_, 7
	note E_, 7
	note F#, 7
	octave 2
	note B_, 7
	octave 3
	note C_, 7
	notetype $c, $b7
	octave 3
	note C_, 7
	notetype $c, $c7
	octave 1
	note B_, 7
	octave 2
	note E_, 7
	note C_, 7
	note F_, 7
	note E_, 7
	octave 1
	note B_, 7
	notetype $c, $b0
	octave 2
	note C_, 9
	notetype $c, $b7
	octave 2
	note C_, 5
	notetype $c, $c3
	octave 1
	note B_, 1
	octave 2
	note E_, 1
	octave 1
	note F_, 1
	octave 2
	note F_, 3
	note E_, 1
	octave 1
	note B_, 1
	note F_, 1
	note B_, 1
	octave 2
	note E_, 1
	note F_, 1
	note E_, 1
	octave 1
	note B_, 1
	note F_, 1
	note B_, 1
	octave 2
	note E_, 1
	octave 1
	note B_, 1
	octave 2
	note E_, 1
	octave 1
	note F_, 1
	octave 2
	note F_, 3
	note E_, 1
	octave 1
	note B_, 1
	note F_, 1
	note B_, 1
	octave 2
	note E_, 1
	note F_, 1
	note E_, 1
	octave 1
	note B_, 1
	note F_, 1
	note B_, 1
	octave 2
	note E_, 1
	note B_, 1
	octave 3
	note E_, 1
	octave 2
	note F_, 1
	octave 3
	note F_, 3
	note E_, 1
	octave 2
	note B_, 1
	note F_, 1
	note B_, 1
	octave 3
	note E_, 1
	note F_, 1
	note E_, 1
	octave 2
	note B_, 1
	note F_, 1
	note B_, 1
	octave 3
	note E_, 1
	octave 2
	note B_, 1
	octave 3
	note E_, 1
	octave 2
	note F_, 1
	octave 3
	note F_, 3
	note E_, 1
	octave 2
	note B_, 1
	note F_, 1
	note B_, 1
	octave 3
	note E_, 1
	note F_, 1
	note E_, 1
	octave 2
	note B_, 1
	note F_, 1
	note B_, 1
	octave 3
	note E_, 1
	note D_, 1
	note G_, 1
	octave 2
	note G#, 1
	octave 3
	note G#, 3
	note G_, 1
	note D_, 1
	octave 2
	note G#, 1
	octave 3
	note D_, 1
	note G_, 1
	note G#, 1
	note G_, 1
	note D_, 1
	octave 2
	note G#, 1
	octave 3
	note D_, 1
	note G_, 1
	note D_, 1
	note G_, 1
	octave 2
	note G#, 1
	octave 3
	note G#, 3
	note G_, 1
	note D_, 1
	octave 2
	note G#, 1
	octave 3
	note D_, 1
	note G_, 1
	note G#, 1
	note G_, 1
	note D_, 1
	octave 2
	note G#, 1
	octave 3
	note D_, 1
	note G_, 1
	note B_, 1
	octave 4
	note E_, 1
	octave 3
	note F_, 1
	octave 4
	note F_, 3
	note E_, 1
	octave 3
	note B_, 1
	note F_, 1
	note B_, 1
	octave 4
	note E_, 1
	note F_, 1
	note E_, 1
	octave 3
	note B_, 1
	note F_, 1
	note B_, 1
	octave 4
	note E_, 1
	octave 3
	note B_, 1
	octave 4
	note E_, 1
	octave 3
	note F_, 1
	octave 4
	note F_, 3
	note E_, 1
	octave 3
	note B_, 1
	note F_, 1
	note B_, 1
	octave 4
	note E_, 1
	note F_, 1
	note E_, 1
	octave 3
	note B_, 1
	note F_, 1
	note B_, 1
	octave 4
	note E_, 1
	note D_, 1
	note G_, 1
	octave 3
	note G#, 1
	octave 4
	note G#, 3
	note G_, 1
	note D_, 1
	octave 3
	note G#, 1
	octave 4
	note D_, 1
	note G_, 1
	note G#, 1
	note G_, 1
	note D_, 1
	octave 3
	note G#, 1
	octave 4
	note D_, 1
	note G_, 1
	note D_, 1
	note G_, 1
	octave 3
	note G#, 1
	octave 4
	note G#, 3
	note G_, 1
	note D_, 1
	octave 3
	note G#, 1
	octave 4
	note D_, 1
	note G_, 1
	note G#, 1
	note G_, 1
	note D_, 1
	octave 3
	note G#, 1
	octave 4
	note D_, 1
	note G_, 1
	notetype $c, $c2
	note A_, 7
	notetype $c, $c3
	octave 2
	note A_, 1
	note B_, 1
	note E_, 1
	octave 3
	note E_, 3
	octave 2
	note B_, 1
	note A_, 1
	note E_, 1
	note A_, 1
	note B_, 1
	octave 3
	note E_, 1
	octave 2
	note B_, 1
	note A_, 1
	note E_, 1
	note A_, 1
	note B_, 1
	note A_, 1
	note B_, 1
	note E_, 1
	octave 3
	note E_, 3
	octave 2
	note B_, 1
	note A_, 1
	note E_, 1
	note A_, 1
	note B_, 1
	octave 3
	note E_, 1
	octave 2
	note B_, 1
	note A_, 1
	note E_, 1
	note A_, 1
	note B_, 1
	octave 3
	note C_, 1
	note D_, 1
	octave 2
	note G_, 1
	octave 3
	note G_, 3
	note D_, 1
	note C_, 1
	octave 2
	note G_, 1
	octave 3
	note C_, 1
	note D_, 1
	note G_, 1
	note D_, 1
	note C_, 1
	octave 2
	note G_, 1
	octave 3
	note C_, 1
	note D_, 1
	note C_, 1
	note D_, 1
	octave 2
	note G_, 1
	octave 3
	note G_, 3
	note D_, 1
	note C_, 1
	octave 2
	note G_, 1
	octave 3
	note C_, 1
	note D_, 1
	note G_, 1
	note D_, 1
	note C_, 1
	octave 2
	note G_, 1
	octave 3
	note C_, 1
	note D_, 1
	octave 2
	note A_, 1
	note B_, 1
	note E_, 1
	octave 3
	note E_, 3
	octave 2
	note B_, 1
	note A_, 1
	note E_, 1
	note A_, 1
	note B_, 1
	octave 3
	note E_, 1
	octave 2
	note B_, 1
	note A_, 1
	note E_, 1
	note A_, 1
	note B_, 1
	note A_, 1
	note B_, 1
	note E_, 1
	octave 3
	note E_, 3
	octave 2
	note B_, 1
	note A_, 1
	note E_, 1
	note A_, 1
	note B_, 1
	octave 3
	note E_, 1
	octave 2
	note B_, 1
	note A_, 1
	note E_, 1
	note A_, 1
	note B_, 1
	loopchannel 0, Music_SuicuneBattle_branch_178e4e

Music_SuicuneBattle_Ch3: ; 179122
	notetype $c, $18
	note __, 15
	note __, 3
	octave 2
	note A_, 3
	note D_, 1
	note E_, 1
	note A#, 1
	note G_, 1
	note D_, 1
	note E_, 1
	octave 1
	note A_, 1
	octave 2
	note A_, 3
	note E_, 1
	note D_, 1
	octave 1
	note A_, 1
	octave 2
	note D_, 1
	note E_, 1
	note A_, 1
	note E_, 1
	note D_, 1
	octave 1
	note A_, 1
	octave 2
	note D_, 1
	note E_, 1
	note D_, 1
	note E_, 1
	octave 1
	note A_, 1
	octave 2
	note A_, 3
	note E_, 1
	note D_, 1
	octave 1
	note A_, 1
	octave 2
	note D_, 1
	note E_, 1
	note A_, 3
	note E_, 1
	octave 1
	note A_, 1
	octave 2
	note D_, 1
	note E_, 1
	note D_, 1
	note E_, 1
	octave 1
	note A_, 1
	octave 2
	note A_, 3
	note E_, 1
	note D_, 1
	octave 1
	note A_, 1
	octave 2
	note D_, 1
	note E_, 1
	note A_, 1
	note E_, 1
	note D_, 1
	octave 1
	note A_, 1
	octave 2
	note D_, 1
	note E_, 1
	note D_, 1
	note E_, 1
	octave 1
	note A_, 1
	octave 2
	note A_, 3
	note E_, 1
	note D_, 1
	octave 1
	note A_, 1
	octave 2
	note D_, 1
	note E_, 1
	note A_, 3
	note E_, 1
	octave 1
	note A_, 1
	octave 2
	note D_, 1
	note E_, 1
	notetype $c, $16

Music_SuicuneBattle_branch_179182: ; 179182
	octave 1
	note A_, 1
	octave 2
	note D_, 1
	octave 1
	note A_, 1
	octave 2
	note D_, 1
	octave 1
	note A_, 1
	octave 2
	note A_, 1
	octave 1
	note A_, 1
	octave 2
	note D_, 1
	octave 1
	note A_, 1
	octave 2
	note D_, 1
	octave 1
	note A_, 1
	octave 2
	note D_, 1
	octave 1
	note A_, 1
	octave 2
	note A_, 1
	octave 1
	note A_, 1
	octave 2
	note D_, 1
	octave 1
	note A_, 1
	octave 2
	note D_, 1
	octave 1
	note A_, 1
	octave 2
	note D_, 1
	octave 1
	note A_, 1
	octave 2
	note D_, 1
	note A_, 1
	note D_, 1
	octave 1
	note A_, 1
	octave 2
	note D_, 1
	octave 1
	note A_, 1
	octave 2
	note D_, 1
	octave 1
	note A_, 1
	octave 2
	note A_, 1
	note D_, 1
	note A_, 1
	note C_, 1
	note G_, 1
	note C_, 1
	note G_, 1
	note C_, 1
	octave 3
	note C_, 1
	octave 2
	note C_, 1
	note G_, 1
	note C_, 1
	note G_, 1
	note C_, 1
	note G_, 1
	note C_, 1
	octave 3
	note C_, 1
	octave 2
	note C_, 1
	note G_, 1
	note C_, 1
	note G_, 1
	note C_, 1
	note G_, 1
	note C_, 1
	note G_, 1
	octave 3
	note C_, 1
	octave 2
	note G_, 1
	note C_, 1
	note G_, 1
	note C_, 1
	octave 3
	note C_, 3
	octave 2
	note G_, 1
	note F_, 1
	note D_, 1
	octave 1
	note A_, 1
	octave 2
	note D_, 1
	octave 1
	note A_, 1
	octave 2
	note D_, 1
	octave 1
	note A_, 1
	octave 2
	note A_, 1
	octave 1
	note A_, 1
	octave 2
	note D_, 1
	octave 1
	note A_, 1
	octave 2
	note D_, 1
	octave 1
	note A_, 1
	octave 2
	note D_, 1
	octave 1
	note A_, 1
	octave 2
	note A_, 1
	octave 1
	note A_, 1
	octave 2
	note D_, 1
	octave 1
	note A_, 1
	octave 2
	note D_, 1
	octave 1
	note A_, 1
	octave 2
	note D_, 1
	octave 1
	note A_, 1
	octave 2
	note D_, 1
	note A_, 1
	note D_, 1
	octave 1
	note A_, 1
	octave 2
	note D_, 1
	octave 1
	note A_, 1
	octave 2
	note D_, 1
	octave 1
	note A_, 1
	octave 2
	note A_, 1
	note D_, 1
	note A_, 1
	note C_, 1
	note G_, 1
	note C_, 1
	note G_, 1
	note C_, 1
	octave 3
	note C_, 1
	octave 2
	note C_, 1
	note G_, 1
	note C_, 1
	note G_, 1
	note C_, 1
	note G_, 1
	note C_, 1
	octave 3
	note C_, 1
	octave 2
	note G_, 1
	octave 3
	note C_, 1
	octave 2
	note G_, 1
	octave 3
	note C_, 1
	octave 2
	note G_, 1
	octave 3
	note C_, 1
	octave 2
	note G_, 1
	octave 3
	note C_, 1
	octave 2
	note G_, 1
	octave 3
	note C_, 1
	octave 2
	note C_, 1
	note G_, 1
	note C_, 1
	octave 3
	note C_, 3
	octave 2
	note G_, 1
	note C_, 1
	note G_, 1
	octave 1
	note B_, 1
	octave 2
	note F#, 1
	note B_, 1
	note F#, 1
	octave 1
	note B_, 1
	octave 2
	note F#, 1
	octave 1
	note B_, 1
	octave 2
	note F#, 1
	octave 1
	note B_, 1
	octave 2
	note F#, 1
	note B_, 1
	note F#, 1
	octave 1
	note B_, 1
	octave 2
	note F#, 1
	octave 1
	note B_, 1
	octave 2
	note F#, 1
	note C_, 1
	note G_, 1
	octave 3
	note C_, 1
	octave 2
	note G_, 1
	note C_, 1
	note G_, 1
	note C_, 1
	note G_, 1
	note C_, 1
	note G_, 1
	octave 3
	note C_, 1
	octave 2
	note G_, 3
	note C_, 1
	octave 3
	note C_, 1
	octave 2
	note G_, 1
	note D_, 1
	note A_, 1
	octave 3
	note D_, 1
	octave 2
	note A_, 1
	note D_, 1
	note A_, 1
	note D_, 1
	note A_, 1
	note D_, 1
	note A_, 1
	octave 3
	note D_, 1
	octave 2
	note A_, 1
	note D_, 1
	note A_, 1
	note D_, 1
	note A_, 1
	note C_, 1
	note G_, 1
	octave 3
	note C_, 1
	octave 2
	note G_, 1
	octave 1
	note B_, 1
	octave 2
	note F#, 1
	octave 1
	note B_, 1
	octave 2
	note F#, 1
	octave 1
	note A_, 1
	octave 2
	note E_, 1
	note A_, 1
	note E_, 1
	note C_, 1
	note G_, 1
	note C_, 1
	note G_, 1
	note F#, 1
	note F#, 1
	note __, 3
	note F#, 1
	note F#, 1
	note __, 3
	note F#, 1
	note F#, 1
	note __, 3
	note F#, 1
	note G_, 5
	note F#, 1
	note F#, 1
	note __, 3
	note F#, 1
	note F#, 1
	note __, 3
	note F#, 1
	note F#, 1
	note __, 3
	note F#, 1
	note G_, 5
	note B_, 1
	note B_, 1
	octave 1
	note B_, 3
	octave 2
	note B_, 1
	note B_, 1
	octave 1
	note B_, 3
	octave 2
	note B_, 1
	note B_, 1
	octave 1
	note B_, 3
	octave 2
	note B_, 1
	octave 3
	note C_, 5
	note F#, 1
	note F#, 1
	octave 1
	note B_, 3
	octave 3
	note F#, 1
	note F#, 1
	octave 1
	note B_, 3
	octave 3
	note F#, 1
	note F#, 1
	octave 1
	note B_, 3
	octave 3
	note F#, 1
	note G_, 5
	octave 2
	note F#, 7
	octave 1
	note B_, 7
	octave 2
	note G_, 7
	note E_, 7
	note F#, 7
	octave 1
	note B_, 7
	octave 2
	note C_, 9
	note C_, 1
	note D_, 1
	note C_, 1
	octave 1
	note B_, 7
	octave 2
	note E_, 7
	note C_, 7
	note F_, 7
	note E_, 7
	octave 1
	note B_, 7
	octave 2
	note C_, 15
	note __, 3
	octave 1
	note B_, 1
	note __, 5
	note B_, 1
	note __, 1
	note __, 3
	note B_, 1
	note __, 5
	note B_, 1
	note __, 1
	note __, 3
	note B_, 1
	note __, 5
	note B_, 1
	note __, 1
	note __, 3
	note B_, 1
	note __, 5
	note B_, 1
	note __, 1
	note B_, 1
	octave 2
	note F_, 1
	note B_, 1
	octave 1
	note B_, 1
	octave 2
	note F_, 1
	note B_, 1
	octave 1
	note B_, 1
	octave 2
	note F_, 1
	octave 1
	note B_, 1
	octave 2
	note F_, 1
	note B_, 1
	octave 1
	note B_, 1
	octave 2
	note F_, 1
	note B_, 1
	octave 1
	note B_, 1
	octave 2
	note F_, 1
	octave 1
	note B_, 1
	octave 2
	note F_, 1
	note B_, 1
	octave 1
	note B_, 1
	octave 2
	note F_, 1
	note B_, 1
	octave 1
	note B_, 1
	octave 2
	note F_, 1
	octave 1
	note B_, 1
	octave 2
	note F_, 1
	note B_, 1
	note F_, 1
	note B_, 1
	note F_, 1
	octave 1
	note B_, 1
	octave 2
	note F_, 1
	note D_, 1
	note G#, 1
	octave 3
	note D_, 1
	octave 2
	note D_, 1
	note G#, 1
	octave 3
	note D_, 1
	octave 2
	note D_, 1
	note G#, 1
	note D_, 1
	note G#, 1
	octave 3
	note D_, 1
	octave 2
	note D_, 1
	note G#, 1
	octave 3
	note D_, 1
	octave 2
	note D_, 1
	note G#, 1
	note D_, 1
	note G#, 1
	octave 3
	note D_, 1
	octave 2
	note D_, 1
	note G#, 1
	octave 3
	note D_, 1
	octave 2
	note D_, 1
	note G#, 1
	note D_, 1
	note G#, 1
	octave 3
	note D_, 1
	octave 2
	note G#, 1
	octave 3
	note D_, 1
	octave 2
	note G#, 1
	note D_, 1
	note G#, 1
	note B_, 1
	note F_, 1
	octave 1
	note B_, 1
	octave 2
	note B_, 1
	note F_, 1
	octave 1
	note B_, 1
	octave 2
	note B_, 1
	note F_, 1
	note B_, 1
	note F_, 1
	octave 1
	note B_, 1
	octave 2
	note B_, 1
	note F_, 1
	octave 1
	note B_, 1
	octave 2
	note B_, 1
	note F_, 1
	octave 1
	note B_, 1
	octave 2
	note F_, 1
	note B_, 1
	octave 1
	note B_, 1
	octave 2
	note F_, 1
	note B_, 1
	octave 1
	note B_, 1
	octave 2
	note F_, 1
	octave 1
	note B_, 1
	octave 2
	note F_, 1
	note B_, 1
	octave 1
	note B_, 1
	octave 2
	note F_, 1
	note B_, 1
	octave 1
	note B_, 1
	octave 2
	note F_, 1
	octave 3
	note D_, 1
	octave 2
	note G#, 1
	note D_, 1
	octave 3
	note D_, 1
	octave 2
	note G#, 1
	note D_, 1
	octave 3
	note D_, 1
	octave 2
	note G#, 1
	octave 3
	note D_, 1
	octave 2
	note G#, 1
	note D_, 1
	octave 3
	note D_, 1
	octave 2
	note G#, 1
	note D_, 1
	octave 3
	note D_, 1
	octave 2
	note G#, 1
	note D_, 1
	note G#, 1
	octave 3
	note D_, 1
	octave 2
	note D_, 1
	note G#, 1
	octave 3
	note D_, 1
	octave 2
	note D_, 1
	note G#, 1
	note D_, 1
	note G#, 1
	octave 3
	note D_, 1
	octave 2
	note G#, 1
	octave 3
	note D_, 1
	octave 2
	note G#, 1
	note D_, 1
	note G#, 1
	note A_, 3
	note __, 3
	octave 1
	note A_, 1
	octave 2
	note D_, 1
	octave 1
	note A_, 1
	octave 2
	note D_, 1
	octave 1
	note A_, 1
	octave 2
	note A_, 1
	octave 1
	note A_, 1
	octave 2
	note D_, 1
	octave 1
	note A_, 1
	octave 2
	note D_, 1
	octave 1
	note A_, 1
	octave 2
	note D_, 1
	octave 1
	note A_, 1
	octave 2
	note A_, 1
	octave 1
	note A_, 1
	octave 2
	note D_, 1
	octave 1
	note A_, 1
	octave 2
	note D_, 1
	octave 1
	note A_, 1
	octave 2
	note D_, 1
	octave 1
	note A_, 1
	octave 2
	note D_, 1
	note A_, 1
	note D_, 1
	octave 1
	note A_, 1
	octave 2
	note D_, 1
	octave 1
	note A_, 1
	octave 2
	note D_, 1
	octave 1
	note A_, 1
	octave 2
	note D_, 1
	octave 1
	note A_, 1
	octave 2
	note D_, 1
	note C_, 1
	note G_, 1
	octave 3
	note C_, 1
	octave 2
	note C_, 1
	note G_, 1
	octave 3
	note C_, 1
	octave 2
	note C_, 1
	note G_, 1
	note C_, 1
	note G_, 1
	octave 3
	note C_, 1
	octave 2
	note C_, 1
	note G_, 1
	octave 3
	note C_, 1
	octave 2
	note C_, 1
	note G_, 1
	note C_, 1
	note G_, 1
	octave 3
	note C_, 1
	octave 2
	note C_, 1
	note G_, 1
	octave 3
	note C_, 1
	octave 2
	note C_, 1
	note G_, 1
	note C_, 1
	note G_, 1
	octave 3
	note C_, 1
	octave 2
	note C_, 1
	note G_, 1
	octave 3
	note C_, 1
	octave 2
	note C_, 1
	note G_, 1
	octave 1
	note A_, 1
	octave 2
	note E_, 1
	note A_, 1
	octave 1
	note A_, 1
	octave 2
	note E_, 1
	note A_, 1
	octave 1
	note A_, 1
	octave 2
	note E_, 1
	octave 1
	note A_, 1
	octave 2
	note E_, 1
	note A_, 1
	octave 1
	note A_, 1
	octave 2
	note E_, 1
	note A_, 1
	octave 1
	note A_, 1
	octave 2
	note E_, 1
	octave 1
	note A_, 1
	octave 2
	note E_, 1
	note A_, 1
	octave 1
	note A_, 1
	octave 2
	note E_, 1
	note A_, 1
	octave 1
	note A_, 1
	octave 2
	note E_, 1
	octave 1
	note A_, 1
	octave 2
	note E_, 1
	octave 1
	note A_, 1
	octave 2
	note A_, 3
	note E_, 1
	note D_, 1
	note E_, 1
	loopchannel 0, Music_SuicuneBattle_branch_179182
; 17948b
